<?xml version="1.0" standalone="no"?>
<!DOCTYPE svg PUBLIC "-//W3C//DTD SVG 1.1//EN" "http://www.w3.org/Graphics/SVG/1.1/DTD/svg11.dtd" >
<svg xmlns="http://www.w3.org/2000/svg">
<metadata>
Created by FontForge 20090914 at Mon Nov 16 17:11:57 2009
 By Tor Arne Vestbø
The splines of this font are copyright &#194;&#169; 1988 by George Williams.
</metadata>
<defs>
<font id="FormalScriptBold" horiz-adv-x="500" >
  <font-face 
    font-family="Formal"
    font-weight="700"
    font-stretch="normal"
    units-per-em="1000"
    panose-1="3 0 8 3 0 0 0 0 0 0"
    ascent="800"
    descent="-200"
    x-height="265"
    cap-height="593"
    bbox="-367.027 -335.098 1759 764"
    underline-thickness="13"
    underline-position="-89"
    stemh="20"
    stemv="16"
    unicode-range="U+0020-U+FB02"
  />
    <missing-glyph />
    <glyph glyph-name="quotedbl" unicode="&#x22;" 
 />
    <glyph glyph-name="space" unicode=" " horiz-adv-x="238" 
 />
    <glyph glyph-name="exclam" unicode="!" horiz-adv-x="211" 
d="M149 41c-1 -58 -82 -58 -86 0c-4 62 88 73 86 0zM191 179c66 107 146 219 219 322c75 105 174 241 216 252c17 5 28 11 46 11c11 0 18 -6 28 -11c39 -18 -99 -160 -178 -252l-283 -322c-16 -18 -27 -34 -50 -34c-14 0 -6 22 2 34z" />
    <glyph glyph-name="parenleft" unicode="(" horiz-adv-x="303" 
d="M91 -67c-116 0 -36 206 92 367c124 157 375 367 486 367l-20 -26c-106 0 -284 -203 -394 -341c-114 -142 -254 -341 -149 -341z" />
    <glyph glyph-name="parenright" unicode=")" horiz-adv-x="285" 
d="M36 -41c105 0 276 199 381 336c110 143 249 346 143 346l21 26c110 0 22 -210 -102 -372c-120 -156 -352 -362 -458 -362z" />
    <glyph glyph-name="comma" unicode="," horiz-adv-x="184" 
d="M143 25c9 -57 -38 -100 -73 -93c-9 2 -15 5 -23 10c6 1 9 7 15 6c17 -5 41 5 45 42c0 7 -2 9 -4 12c-2 -6 -8 -10 -13 -11c-40 -3 -41 42 -24 62c22 24 70 12 77 -28z" />
    <glyph glyph-name="hyphen" unicode="-" horiz-adv-x="253" 
d="M14 133l31 32h163l-31 -32h-163z" />
    <glyph glyph-name="period" unicode="." horiz-adv-x="195" 
d="M59 35c0 49 74 49 74 0c0 -48 -74 -48 -74 0z" />
    <glyph glyph-name="zero" unicode="0" horiz-adv-x="229" 
d="M56 -24c-34 3 -57 22 -53 64c4 60 118 231 236 232c30 1 45 -30 43 -67c-5 -80 -173 -234 -226 -229zM225 238c-75 3 -194 -172 -192 -219c0 -8 8 -19 20 -22c58 -13 193 163 193 204c0 16 -4 36 -21 37z" />
    <glyph glyph-name="one" unicode="1" horiz-adv-x="182" 
d="M42 13c14 6 23 10 35 19c45 35 53 91 89 148l16 25l-135 -112l-8 7l159 136c13 11 18 21 33 28c9 3 15 5 24 5c-14 -14 -22 -24 -34 -41c-25 -36 -25 -65 -42 -104c-22 -53 -47 -78 -96 -112c-13 -9 -23 -10 -38 -13z" />
    <glyph glyph-name="two" unicode="2" horiz-adv-x="299" 
d="M252 57l3 1l-3 -12c-25 -27 -46 -41 -85 -41c-28 1 -42 16 -70 18c-30 1 -31 -22 -77 -14l-24 4l27 16c99 58 222 137 224 190c0 22 4 50 -29 48c-55 -3 -112 -61 -108 -94c1 -10 11 -17 21 -16c22 2 32 18 48 35c14 16 21 28 28 48l10 -11c-8 -18 -17 -26 -28 -44
c-15 -24 -38 -44 -64 -46c-18 -2 -38 3 -38 29c-2 64 72 121 142 121c32 0 60 -18 55 -62c-7 -64 -60 -103 -123 -138l-66 -37l30 5c18 2 27 -13 46 -16c32 -4 53 0 81 16z" />
    <glyph glyph-name="three" unicode="3" horiz-adv-x="261" 
d="M201 240l7 -4c-7 -17 -13 -27 -27 -39c-10 -9 -15 -15 -28 -18c-22 -6 -42 -1 -42 26c0 38 53 71 102 78c43 6 72 -15 75 -40c4 -28 -20 -54 -52 -71c-9 -5 -15 -7 -25 -9c8 -2 12 -4 18 -10c9 -8 10 -18 10 -30c-2 -59 -76 -118 -150 -122c-40 -2 -90 15 -89 56
c1 52 62 68 76 36s-27 -48 -35 -29c-2 5 -2 9 -1 15c-9 -2 -18 3 -23 -11c-9 -27 24 -54 68 -52c60 3 112 63 115 103c1 17 -2 39 -39 22c-8 -4 -14 -4 -21 -10l-7 14c18 6 28 11 44 20c33 19 68 32 72 64c3 21 -7 29 -24 30c-45 1 -96 -33 -96 -50c1 -20 15 -18 30 -13
c10 4 16 9 24 17c9 10 13 16 18 27z" />
    <glyph glyph-name="four" unicode="4" horiz-adv-x="341" 
d="M69 28c-12 1 -19 4 -32 3c-11 -2 -24 -5 -21 -16c1 -6 7 -7 13 -8c18 -4 30 7 40 21zM190 39c13 24 24 46 47 68c28 26 50 38 88 37c-31 -15 -46 -31 -64 -61c-9 -16 -13 -28 -18 -44c9 0 18 -2 29 0s18 4 27 12c-2 -12 -7 -20 -18 -24c-16 -7 -30 -3 -44 -4
c-12 -28 -25 -58 -56 -84c-34 -30 -64 -43 -108 -31c34 15 56 26 79 55c16 20 22 44 31 60c-27 2 -62 2 -90 3c-4 -3 -8 -7 -12 -10c-14 -13 -22 -23 -42 -23c-23 0 -46 11 -39 32c6 17 23 20 40 22c17 1 29 -4 43 -4l234 242l14 -16c-86 -90 -140 -153 -220 -228
c24 0 55 -2 79 -2z" />
    <glyph glyph-name="five" unicode="5" horiz-adv-x="289" 
d="M41 77c-16 -4 -27 -18 -22 -37c5 -26 34 -27 60 -27c57 0 90 30 121 78c11 16 19 32 16 48c-2 10 -7 16 -17 21c-22 11 -43 8 -55 -5l-36 -40l-8 5l137 167c16 -16 23 -35 44 -35c32 0 48 16 75 32l11 -1c-24 -36 -43 -62 -87 -66c-27 -2 -39 12 -59 26l-56 -63
c54 21 114 -9 96 -65c-26 -86 -98 -118 -189 -118c-37 0 -72 11 -72 51c0 36 29 59 56 56c13 -2 20 -16 19 -29c-2 -13 -9 -26 -23 -23c-5 1 -8 3 -11 8c-3 6 -3 11 0 17z" />
    <glyph glyph-name="six" unicode="6" horiz-adv-x="266" 
d="M45 69c0 -25 12 -42 32 -42c64 0 144 115 147 170c1 18 -1 32 -37 27c-82 -11 -142 -102 -142 -155zM115 233c27 14 57 22 85 23c40 1 59 -28 59 -61c0 -78 -116 -198 -195 -198c-45 1 -65 31 -64 67c2 156 195 353 346 357c16 0 27 -5 43 -10v-16c-13 2 -21 2 -34 2
c-88 1 -180 -76 -240 -164z" />
    <glyph glyph-name="seven" unicode="7" horiz-adv-x="139" 
d="M63 220l-20 -25l-16 10l69 102l11 -8l-20 -26c9 8 16 10 28 12c54 8 34 -53 56 -58c9 -2 15 0 24 2l29 40l8 -21l-301 -403l-32 32l274 326c-8 -4 -12 -5 -21 -6c-49 -3 -26 48 -53 46c-17 -2 -26 -10 -36 -23z" />
    <glyph glyph-name="eight" unicode="8" horiz-adv-x="208" 
d="M107 141c-36 -29 -86 -56 -79 -108c3 -21 24 -29 45 -22c34 10 58 36 60 74c0 23 -14 37 -26 56zM121 181c26 22 58 36 86 53c-8 21 -14 24 -30 23c-33 -1 -56 -24 -58 -61c-1 -5 0 -10 2 -15zM221 242c32 16 66 23 108 25l8 -12c-44 2 -72 -8 -113 -29
c3 -18 3 -35 3 -57l-8 -8c0 22 -4 38 -7 56c-27 -18 -54 -37 -78 -55c14 -14 36 -35 38 -66c6 -65 -45 -105 -108 -107c-33 0 -62 8 -64 46c-3 63 59 95 96 127c-6 11 -10 19 -11 33c0 25 10 43 27 62c25 28 54 34 87 24c14 -4 22 -39 22 -39z" />
    <glyph glyph-name="nine" unicode="9" horiz-adv-x="271" 
d="M221 197c0 20 -3 42 -24 42c-57 0 -155 -90 -155 -170c0 -21 15 -28 37 -27c82 2 142 98 142 155zM171 67c0 0 -60 -57 -105 -57c-33 0 -59 19 -59 51c0 112 87 208 195 208c39 0 64 -28 64 -67c0 -81 -30 -126 -80 -189c-64 -82 -121 -132 -208 -158
c-39 -11 -63 -15 -101 0v16c30 -4 48 -6 77 0c67 16 122 69 176 139c17 21 29 38 41 57z" />
    <glyph glyph-name="colon" unicode=":" horiz-adv-x="195" 
d="M136 213c0 49 73 49 73 0c0 -48 -73 -48 -73 0zM37 35c0 49 73 49 73 0c0 -48 -73 -48 -73 0z" />
    <glyph glyph-name="semicolon" unicode=";" horiz-adv-x="196" 
d="M136 25c9 -57 -38 -100 -73 -93c-8 2 -15 5 -22 10c5 1 8 7 14 6c17 -5 42 5 45 42c1 7 -1 9 -4 12c-1 -6 -7 -10 -13 -11c-40 -3 -41 42 -24 62c22 24 70 12 77 -28zM129 213c0 49 74 49 74 0c0 -48 -74 -48 -74 0z" />
    <glyph glyph-name="question" unicode="?" horiz-adv-x="340" 
d="M55 35c0 49 74 49 74 0c0 -48 -74 -48 -74 0zM285 237c-58 -41 -77 -80 -128 -130l-26 -27l-14 13l24 30c60 73 60 146 165 179c53 17 106 39 111 84c4 29 -23 51 -46 52c-64 1 -130 -38 -132 -75c-2 -28 21 -26 41 -18c31 10 45 31 59 61l10 -5c-16 -40 -34 -69 -76 -80
c-31 -8 -60 -2 -60 37c0 65 70 112 141 119c61 6 105 -29 109 -64c5 -40 4 -108 -75 -139c-40 -15 -67 -12 -103 -37z" />
    <glyph glyph-name="A" unicode="A" horiz-adv-x="798" 
d="M535 222c-5 -5 -10 -11 -15 -18c-13 -19 -33 -59 -16 -58c16 1 23 23 27 41c2 9 4 21 4 35zM544 281c3 -10 5 -21 5 -32c8 3 16 6 24 10c9 3 16 4 26 6c14 21 24 33 40 54c60 77 102 120 177 181c17 14 27 23 45 36c-11 -3 -18 -5 -29 -11c-120 -66 -196 -148 -288 -244z
M535 240c0 9 -2 18 -4 27l-82 -83c-108 -103 -193 -185 -334 -186c-55 0 -104 37 -107 92c-1 21 4 48 27 50c13 1 28 -11 24 -24c-3 -7 -8 -11 -16 -12c-6 -1 -12 1 -16 4c-6 -19 -4 -34 4 -52c14 -33 47 -41 84 -44c154 -11 312 175 348 212l61 63c-18 41 -59 79 -149 77
c-75 -1 -126 -25 -172 -84c-22 -29 -32 -49 -40 -84h-6c1 20 2 32 10 50c38.209 87.706 123.925 134.692 210 135.064c69.709 0.300995 134.896 -27.433 160 -81.064c118 121 228 229 340 262c20 6 32 7 54 10v-12c-12 -5 -20 -7 -30 -14c-64 -43 -181 -170 -252 -308
c-42 -81 -131 -223 -59 -221c93 2 213 172 163 175c-54 3 -78 -47 -103 -90c-10 -17 -16 -26 -23 -44c1 16 1 25 8 40c26 57 64 110 110 110c97 0 -52 -220 -172 -210c-90 7 -42 136 -6 210c7 15 12 24 22 37c-10 -1 -15 -2 -24 -6c-6 -3 -10 -5 -15 -8c0 -10 -1 -20 -3 -32
c-4 -31 -21 -69 -46 -70c-37 0 -16 52 8 84c8 11 16 20 26 27z" />
    <glyph glyph-name="B" unicode="B" horiz-adv-x="747" 
d="M394 546c-39 -24 -74 -56 -105 -97c-70 -94 -116 -266 -10 -257c156 13 228 277 115 354zM661 294c-11 7 -24 10 -38 7c-13 -2 -33 -2 -30 -14s18 -8 30 -7c13 1 26 7 38 14zM767 529c-93 -48 -126 -113 -186 -202c-117 -172 -282 -364 -482 -339c-44 5 -85 25 -88 68
c-2 16 1 31 16 40c14 9 28 9 37 3c21 -16 7 -36 -17 -26c-3 2 -5 5 -6 9c-3 -2 -15 1 -15 -16c0 -54 71 -62 125 -61c133 4 243 183 353 326c77 101 163 172 255 214c-22 37 -68 58 -132 61c-73 3 -149 -13 -218 -51c128 -92 12 -395 -148 -379c-112 11 -52 209 24 293
c30 34 62 62 96 85c-12 6 -25 10 -40 12c-118 16 -221 -72 -266 -192c-10 -25 -9 -41 -9 -68h-15c-2 19 -3 31 2 50c35 136 163 250 302 222c16 -3 29 -8 41 -14c61 37 126 58 193 60c92 3 160 -23 196 -67l24 9c7 3 11 4 18 6l-2 -18c-12 -4 -20 -7 -29 -11
c22 -33 27 -75 13 -121c-18 -62 -66 -101 -115 -127c25 -17 40 -45 40 -80c0 -116 -121 -214 -225 -223c-63 -5 -104 30 -76 85c10 20 56 95 132 90l20 -2l-2 -13l-18 1c-56 4 -91 -36 -116 -83c-26 -47 21 -67 62 -60c83 13 174 149 178 230c0 18 -6 33 -16 44
c-14 -7 -28 -12 -40 -17c-22 -8 -60 -2 -56 21c3 21 33 25 58 25c15 0 29 -4 42 -9c55 43 96 129 98 172c2 19 -2 37 -8 53z" />
    <glyph glyph-name="C" unicode="C" horiz-adv-x="453" 
d="M111 341c-97 32 -76 154 32 181c16 4 26 3 42 -2v-12c-16 4 -26 4 -42 -1c-76 -24 -112 -128 -20 -151c144 179 382 262 471 244c163 -33 -79 -258 -408 -266c-68 -85 -115 -174 -117 -241c-1 -46 19 -94 80 -88c182 19 310 241 226 259c-76 16 -130 -64 -178 -130
c-15 -20 -19 -34 -27 -57l-11 -15c2 21 4 39 11 54c41 95 113 180 199 167c140 -22 -26 -292 -232 -295c-72 -1 -134 54 -124 123c13 89 50 166 98 230zM202 354c164 3 423 122 425 207c0 20 -30 26 -50 26c-125 0 -268 -111 -375 -233z" />
    <glyph glyph-name="D" unicode="D" horiz-adv-x="709" 
d="M228 27c-55 20 -99 44 -133 42c-72 -3 -55 -62 41 -56c35 2 65 7 92 14zM699 409c-78 -65 -107 -208 -207 -282c-63 -48 -132 -81 -199 -102c30 -8 61 -12 93 -9c244 25 357 239 313 393zM716 421c58 -170 -67 -416 -344 -421c-41 -1 -77 6 -111 16
c-48 -13 -95 -19 -137 -20c-95 -2 -141 84 -20 91c41 3 95 -28 155 -50c63 22 112 60 174 112c84 72 141 221 258 284c-32 77 -110 133 -236 130c-308 -8 -480 -418 -216 -408c238 8 281 299 157 281c-55 -8 -89 -25 -124 -68c-17 -21 -24 -35 -32 -60l-12 -16
c4 34 13 55 32 83c35 52 74 75 136 77c179 6 81 -315 -163 -316c-309 -1 -159 439 224 444c132 1 214 -58 251 -139c9 4 17 7 27 10c15 4 24 7 40 10l1 -17c-13 -3 -19 -6 -32 -10c-10 -3 -19 -8 -28 -13z" />
    <glyph glyph-name="E" unicode="E" horiz-adv-x="560" 
d="M306 363c3 -12 9 -21 22 -27c7 -3 21 -5 22 4c1 7 -7 9 -14 14c-9 5 -19 9 -30 9zM280 363c-87 -11 -209 -112 -216 -219c-7 -102 47 -129 120 -134c132 -10 261 115 266 210c3 49 -27 59 -62 61c-67 4 -196 -108 -216 -187c-3 -13 -3 -22 -2 -36l-8 10
c-1 13 -2 19 -1 32c5 68 124 203 227 200c51 -1 81 -27 79 -85c-3 -88 -136 -228 -272 -224c-96 2 -192 47 -193 156c-1 106 137 233 270 234c-5 18 -6 37 -1 58c22 106 130 164 258 162c65 -2 120 -47 121 -111c1 -84 -77 -157 -169 -164c-38 -3 -74 19 -76 57
c-2 42 44 95 91 113c23 9 39 8 62 3v-8c-19 2 -31 0 -50 -6c-49 -17 -89 -68 -87 -101c2 -29 34 -44 63 -42c79 5 149 73 150 146c1 56 -45 91 -113 91c-66 -1 -201 -76 -212 -154c-2 -15 -4 -31 -4 -46c10 -1 20 -4 31 -7c19 -7 47 -31 32 -46c-11 -11 -28 -10 -44 -3
c-17 7 -33 21 -44 40z" />
    <glyph glyph-name="F" unicode="F" horiz-adv-x="644" 
d="M743 491c48 15 119 46 118 82c0 8 -10 5 -16 4c-22 -2 -62 -43 -102 -86zM654 282c20 7 35 17 42 27c5 9 1 13 -8 12c-13 0 -24 -19 -34 -39zM474 251c45 60 82 108 142 177c14 16 30 33 48 49c-31 10 -60 33 -63 68c-3 43 -34 49 -67 50c-118 6 -282 -116 -287 -216
c-2 -52 34 -73 75 -74c75 -2 179 112 188 170c2 11 5 18 1 29c-2 7 -4 11 -9 16l2 4c9 -7 15 -14 19 -25c4 -14 2 -23 1 -37c-5 -73 -119 -173 -201 -173c-49 0 -99 24 -96 84c6 108 159 239 309 237c53 -1 111 -25 110 -80c-1 -18 5 -38 27 -45c66 58 144 109 174 108
c26 -2 28 -11 28 -26c-2 -36 -86 -78 -146 -91l-22 -25c-56 -60 -104 -132 -145 -192c25 4 50 9 71 16c4 7 7 15 11 24c11 23 28 43 52 41c9 -1 19 -5 20 -14c4 -27 -28 -50 -73 -67c-5 -10 -10 -20 -16 -26c-12 -12 -21 -20 -35 -31l-22 2c18 11 27 19 41 35c4 4 7 8 10 12
c-24 -6 -50 -12 -75 -16c-23 -34 -44 -62 -63 -81c-94 -95 -172 -154 -305 -157c-97 -2 -172 42 -171 98c0 20 5 36 23 45c12 6 23 10 34 2c16 -11 11 -35 -14 -30c-7 1 -10 5 -12 12c-5 -1 -8 -3 -11 -7c-6 -6 -6 -12 -6 -21c2 -61 89 -85 156 -83c114 5 174 74 242 164
c13 18 26 34 37 50c-55 -4 -106 -14 -127 -54c-2 -5 -3 -8 -5 -14l-9 -3c-1 6 -2 9 0 15c12 58 86 73 159 80z" />
    <glyph glyph-name="G" unicode="G" horiz-adv-x="579" 
d="M387 316c166 17 381 195 382 224c1 19 -14 27 -30 25c-123 -14 -269 -143 -352 -249zM529 234c44 29 76 57 77 73c0 8 -5 8 -9 8c-16 -2 -40 -36 -68 -81zM436 185c60 74 122 148 163 146c17 -1 17 -10 20 -22c4 -20 -46 -63 -107 -101c-26 -39 -56 -81 -89 -112
c-74 -67 -136 -99 -235 -102c-85 -3 -174 55 -176 117c-1 24 21 51 39 38c21 -15 4 -38 -18 -24c-2 2 -3 5 -4 8c-4 -6 -8 -10 -8 -17c1 -43 57 -107 194 -103c84 2 130 64 178 120c7 8 14 16 21 25c-27 -11 -53 -17 -71 -17c-46 2 -79 31 -79 58c0 37 14 74 37 110
c-41 12 -72 43 -73 87c-2 63 71 128 127 99l25 -14l-5 -6l-30 10c-49 18 -104 -40 -98 -93c3 -36 30 -59 63 -69c107 149 367 269 431 258c22 -3 41 -11 43 -34c5 -47 -218 -230 -408 -245c-32 -43 -53 -80 -55 -103c-5 -36 14 -38 30 -38c22 1 53 10 85 24z" />
    <glyph glyph-name="H" unicode="H" horiz-adv-x="901" 
d="M723 335c237 67 467 167 467 253c0 25 -37 21 -62 18c-89 -9 -270 -123 -405 -271zM384 240c-181 -49 -358 -129 -369 -208c-4 -27 33 -27 50 -28c110 -3 229 123 319 236zM559 293c20 5 41 10 62 14c14 16 28 32 44 48c140 153 386 268 467 269c31 0 75 2 76 -28
c5 -113 -251 -218 -505 -284l-31 -39c-60 -78 -121 -152 -120 -221c0 -29 25 -44 57 -47c77 -8 265 106 261 207c-1 23 -17 45 -44 44c-65 -1 -103 -58 -150 -116c-22 -27 -33 -45 -48 -76l-7 3c10 27 18 44 34 68c47 72 96 137 175 137c31 0 57 -23 58 -54
c1 -111 -175 -233 -281 -230c-67 2 -108 37 -104 91c8 86 46 146 100 208c-16 -4 -34 -8 -50 -10c-5 -17 -10 -34 -30 -50c-10 -8 -18 -14 -30 -20l-10 4c7 6 12 10 18 16c16 15 23 30 28 45c-8 -1 -14 -3 -21 -4l-47 -9c-116 -144 -244 -264 -397 -267
c-37 -1 -61 13 -62 38c-4 91 203 178 397 228l77 101c35 46 61 69 103 109c22 20 36 28 61 44c-11 -3 -19 -5 -31 -5c-67 -2 -62 86 -119 87c-55 1 -110 -52 -116 -116c-3 -30 30 -57 62 -58c37 -1 63 15 84 46c13 19 17 32 18 54l12 -6c-2 -22 -6 -35 -18 -54
c-23 -36 -51 -54 -94 -56c-45 -2 -82 23 -82 72c0 77 75 136 132 136c94 0 91 -84 122 -84c35 0 56 8 86 28c13 9 25 7 40 10l-6 -12c-10 -6 -16 -10 -26 -17c-89 -60 -120 -116 -184 -202l-45 -59c10 2 20 4 29 6c10 2 20 4 29 6c4 14 9 26 21 36c15 13 25 18 44 24v-10
c-9 -7 -13 -11 -20 -18c-9 -9 -15 -18 -19 -27z" />
    <glyph glyph-name="I" unicode="I" horiz-adv-x="541" 
d="M797 551c44 -6 84 -9 84 14c0 9 -16 9 -27 9c-15 0 -35 -9 -57 -23zM559 495c-74 -40 -133 -98 -136 -135c0 -13 -7 -30 17 -31c43 -1 109 74 118 147c1 7 1 13 1 19zM573 503v-6c-6 -90 -64 -184 -141 -184c-13 0 -28 6 -27 34c0 64 66 128 150 168c-9 35 -36 62 -74 61
c-46 -1 -80 -13 -109 -50c-16 -21 -22 -35 -26 -61h-13c2 22 7 35 17 54c26 52 83 73 136 74c43 0 77 -32 85 -71c49 21 104 34 154 35c9 0 18 -1 28 -2c40 24 74 38 95 34c20 -4 48 0 48 -20c1 -43 -66 -40 -121 -34c-85 -66 -199 -204 -276 -326
c-84 -131 -224 -202 -345 -204c-69 -2 -154 22 -153 92c1 21 13 45 35 44c43 0 29 -40 0 -29c-5 2 -4 3 -5 6c-5 -1 -10 -1 -12 -5c-24 -52 53 -95 135 -92c149 6 225 121 311 252c65 100 176 207 265 268h-3c-48 3 -104 -14 -154 -38z" />
    <glyph glyph-name="J" unicode="J" horiz-adv-x="387" 
d="M15 -124c-160 -49 -275 -53 -339 -133c-26 -32 -26 -56 9 -55c104 5 215 78 330 188zM799 559c22 -4 46 -7 73 -10c29 -2 69 14 68 28c-1 15 -33 12 -55 10c-25 -3 -54 -13 -86 -28zM345 253l51 64c81 103 220 185 331 234c-16 2 -32 2 -52 2
c-184 -6 -409 -122 -408 -221c0 -50 33 -73 78 -79zM51 -89c90 92 184 205 279 324c-48 8 -83 35 -83 90c-2 173 236 241 428 244c32 1 58 -1 83 -4c60 24 108 38 130 38c27 0 62 6 67 -21c7 -33 -49 -50 -87 -48c-37 2 -65 7 -94 11c-100 -56 -218 -160 -314 -270
c-3 -4 -6 -7 -9 -11c33 9 64 23 89 39c23 15 35 26 51 47l14 -14c-18 -22 -30 -33 -54 -49c-32 -21 -76 -38 -120 -48c-46 -60 -126 -167 -227 -272c78 32 149 70 174 94l9 9l13 -9l-13 -11c-54 -45 -130 -85 -219 -120c-135 -134 -301 -256 -471 -263c-38 -2 -65 10 -64 40
c4 111 227 154 394 197c7 2 15 4 24 7z" />
    <glyph glyph-name="K" unicode="K" horiz-adv-x="697" 
d="M609 262c-6 10 -16 17 -29 18c-11 1 -27 0 -27 -8c1 -11 16 -11 27 -11c9 -1 19 0 29 1zM540 270l-36 -54c-88 -131 -205 -217 -343 -219c-70 0 -150 30 -150 100c0 26 15 56 38 52c33 -6 28 -51 -9 -31c-3 1 -3 5 -3 9v3c-4 -1 -8 -5 -10 -9c-4 -6 -2 -13 -2 -22
c0 -63 74 -86 138 -87c122 -3 181 99 261 197c63 78 87 138 167 199c28 21 45 33 76 49c-11 -5 -18 -6 -30 -6c-26 0 -56 7 -54 43c2 30 -26 51 -56 53c-79 4 -162 -65 -172 -115c-8 -39 3 -75 50 -75c37 0 88 24 114 70c8 16 14 29 16 48l5 -12c-1 -14 -3 -24 -8 -36
c-21 -56 -91 -84 -128 -83c-56 2 -73 34 -63 93c8 48 98 126 195 124c32 0 78 -24 73 -61c-2 -21 14 -37 36 -35c34 2 52 14 83 27c17 7 27 12 44 20l5 -8c-16 -8 -27 -15 -42 -24c-96 -59 -120 -95 -184 -192c9 4 20 5 27 5c21 0 41 -11 53 -26c30 8 62 23 90 46
c134 110 209 258 423 262c104 1 173 -47 173 -114c1 -76 -75 -128 -152 -126c-17 0 -29 0 -44 8c-13 6 -21 14 -28 28h14c3 -7 8 -12 14 -16c14 -10 26 -7 43 -7c70 0 141 47 135 119c-5 56 -59 92 -155 90c-176 -2 -243 -132 -384 -238c-21 -16 -69 -50 -121 -64
c4 -10 8 -22 7 -34c-1 -37 -83 -159 -85 -211c0 -11 6 -20 16 -21c31 -4 78 33 118 70l15 15l13 -9l-18 -15c-44 -35 -83 -75 -120 -75c-32 0 -68 11 -64 52c9 78 88 164 94 210c0 5 0 9 -1 13c-12 -1 -25 -2 -37 -1c-15 2 -36 8 -37 21z" />
    <glyph glyph-name="L" unicode="L" horiz-adv-x="593" 
d="M617 277c150 49 290 168 291 212c0 20 -21 22 -37 22c-93 1 -174 -115 -254 -234zM266 0c-81 29 -154 67 -195 65c-16 0 -57 -6 -58 -21c-2 -48 73 -67 127 -68c43 -1 85 8 126 24zM603 256c-33 -50 -66 -99 -100 -139c-45 -52 -95 -90 -149 -115c21 -7 40 -11 59 -11
c58 0 114 20 170 68l11 10l11 -9l-12 -10c-62 -48 -103 -83 -181 -81c-33 0 -67 7 -101 16c-53 -18 -110 -26 -170 -25c-49 1 -144 32 -145 75c0 35 43 46 79 46c94 0 168 -35 232 -62c82 45 153 115 193 178c9 15 19 30 28 44c-12 -1 -24 -2 -36 -2
c-88 -3 -191 20 -189 122c0 65 62 110 125 108c13 0 21 -2 33 -5c11 -3 17 -6 27 -11l-3 -13c-10 5 -16 9 -28 12s-19 6 -32 5c-48 -3 -109 -40 -109 -96c0 -82 91 -108 181 -106c14 0 28 1 42 3c102 152 200 269 336 266c22 0 49 -9 49 -32c1 -58 -147 -189 -321 -236z" />
    <glyph glyph-name="M" unicode="M" horiz-adv-x="1040" 
d="M758 477c-31 -19 -55 -30 -95 -40c-46 -11 -112 19 -116 64c-4 42 -38 74 -79 71c-65 -4 -129 -49 -121 -113c6 -55 56 -92 112 -90c27 1 42 13 66 26c6 3 9 4 15 8v-14c-10 -8 -16 -12 -28 -18c-19 -10 -31 -14 -52 -16c-63 -6 -122 32 -132 94c-14 86 61 138 148 140
c67 2 106 -40 112 -80c7 -46 39 -58 75 -53c57 9 87 35 136 60c0 1 1 1 2 1c22 20 46 40 71 60c15 12 23 18 37 30l8 -15l-10 -19c-28 -49 -36 -77 -62 -124c-32 -61 -54 -92 -90 -151l-30 -49l19 20c47 52 77 79 129 125c82 71 130 111 222 167l45 26l21 -8l-16 -18
c-90 -102 -153 -150 -234 -260c-70 -96 -158 -235 -158 -261c1 -15 9 -30 24 -33c66 -11 215 150 213 184c-1 12 -9 14 -18 14c-67 0 -93 -66 -142 -118l-12 -15l-9 6c3 5 4 8 8 12c48 63 86 132 158 131c17 0 34 -8 34 -28c2 -55 -146 -208 -236 -201c-34 3 -70 26 -66 61
c8 55 68 146 130 228c62 85 110 124 186 196l66 61c-29 -17 -46 -27 -73 -46c-92 -63 -137 -108 -217 -186s-116 -133 -193 -215l-89 -92l-30 12c20 22 31 34 49 57c45 56 65 91 104 152l163 257l30 46l-44 -40c-86 -80 -109 -115 -209 -220c-133 -139 -254 -263 -417 -266
c-60 -2 -162 34 -162 111c0 28 25 55 47 55c57 0 35 -54 3 -48c-10 2 -18 5 -20 14c0 4 2 8 4 12c-4 -1 -7 -1 -10 -4c-10 -12 -9 -17 -9 -34c1 -40 61 -92 149 -91c130 1 275 132 406 269c60 64 118 129 187 196z" />
    <glyph glyph-name="N" unicode="N" horiz-adv-x="795" 
d="M743 491h1c1 0 1 1 1 1c7 8 14 15 22 23c12 12 20 18 34 30l30 -5c-18 -22 -30 -33 -40 -59c-31 -78 -40 -115 -58 -203c-12 -58 -30 -88 -50 -143c14 26 49 82 86 129c196 245 389 391 634 391c149 -1 332 -65 320 -211c-8 -92 -74 -170 -166 -168c-30 1 -51 2 -74 20
c-9 7 -14 12 -20 21l6 6c6 -7 11 -11 19 -16c23 -16 41 -18 69 -18c85 0 146 70 152 155c10 138 -167 196 -306 196c-340 0 -535 -290 -748 -561c-24 -31 -41 -48 -66 -79l-36 9c13 15 20 24 32 40c68 96 77 170 95 240c8 31 -8 -16 31 106c8 22 12 37 20 60
c-28 -36 -49 -56 -74 -90c-92 -124 -261 -368 -459 -373c-89 -3 -209 32 -197 116c4 28 19 57 47 55c31 -2 46 -33 15 -46c-22 -10 -28 10 -28 24c-5 -2 -7 -4 -11 -8c-5 -4 -7 -8 -8 -14c-21 -91 104 -118 189 -112c154 10 254 141 366 274c52 63 85 110 128 160
c-23 -16 -45 -27 -78 -29c-47 -3 -104 16 -108 61c-4 44 -44 74 -87 71c-65 -4 -129 -49 -121 -113c6 -55 56 -92 112 -90c27 1 42 13 66 26c6 3 9 4 15 8v-14c-10 -8 -16 -12 -28 -18c-19 -10 -31 -14 -52 -16c-63 -6 -122 32 -132 94c-14 86 61 138 148 140
c62 2 107 -39 107 -80c-1 -49 44 -54 80 -53c56 1 83 31 122 63z" />
    <glyph glyph-name="O" unicode="O" horiz-adv-x="499" 
d="M413 527l-3 -12c-17 -6 -29 -10 -45 -19c-40 -21 -298 -235 -296 -420c0 -61 46 -63 90 -63c88 2 449 300 463 451c3 30 -8 57 -36 68c-70 29 -203 -63 -271 -159c-18 -26 -27 -44 -41 -73c-9 -18 -13 -28 -20 -47l-8 8c6 17 10 26 17 43c18 38 29 58 52 92
c75 109 202 181 283 149c34 -13 43 -47 44 -84c6 -192 -385 -464 -489 -466c-70 -2 -139 24 -136 116c8 196 244 370 348 404c18 6 29 8 48 12z" />
    <glyph glyph-name="P" unicode="P" horiz-adv-x="597" 
d="M763 505c-31 37 -86 58 -136 59c-172 1 -350 -167 -350 -267c0 -37 17 -71 64 -72c50 0 132 68 167 150c10 23 15 32 13 53c0 9 -1 15 -4 23l11 1c3 -9 6 -15 7 -24c1 -33 -1 -53 -15 -84c-35 -79 -115 -131 -183 -133c-51 -2 -74 43 -73 88c3 119 178 271 353 278
c61 3 128 -18 171 -60c8 3 17 6 25 10c14 5 22 5 36 8l-2 -11c-9 -3 -16 -4 -24 -8l-24 -12c17 -21 28 -45 32 -75c10 -100 -92 -182 -175 -190c-29 -3 -53 3 -55 28c-2 30 26 61 62 76c6 2 10 4 17 5l-1 -8c-9 -3 -14 -7 -22 -12c-20 -15 -39 -37 -37 -53
c2 -18 13 -24 32 -23c59 1 121 94 133 176c4 23 -1 43 -11 61c-99 -62 -149 -143 -219 -254c-87 -138 -226 -251 -364 -251c-81 0 -168 43 -167 121c0 26 13 52 39 55c21 2 32 -6 34 -21c2 -22 -36 -26 -36 -4c0 3 3 5 6 8c-6 0 -10 0 -15 -3c-11 -6 -14 -22 -13 -37
c3 -72 86 -109 161 -107c105 3 200 131 279 245c85 125 166 208 284 264z" />
    <glyph glyph-name="Q" unicode="Q" horiz-adv-x="775" 
d="M233 17c-44 20 -81 40 -129 42c-31 1 -72 -1 -76 -28c-5 -38 62 -32 104 -30c37 2 70 8 101 16zM257 7c-36 -10 -73 -16 -114 -19c-54 -5 -138 -13 -131 45c5 37 63 47 109 46c58 -2 112 -24 166 -45c42 16 85 37 133 63c152 82 289 218 287 336c-2 75 -49 99 -115 96
c-130 -4 -278 -100 -285 -218c-3 -46 37 -87 82 -83c48 4 176 77 172 155c0 21 -9 42 -36 42c-50 2 -84 -38 -105 -76c-4 -7 -5 -11 -8 -18l-8 2c1 8 1 13 4 20c17 38 68 90 119 87c27 -1 46 -23 49 -49c9 -92 -127 -180 -189 -179c-54 1 -100 38 -98 97
c7 132 168 238 312 239c78 1 167 -41 167 -120c0 -167 -177 -249 -299 -324c-56 -35 -106 -61 -158 -80c50 -19 101 -37 156 -37c110 -1 248 87 256 122c4 21 -6 36 -32 36c-67 0 -120 -58 -178 -117c-7 -7 -11 -12 -18 -20l-4 12c9 14 15 22 26 35c51 58 99 102 166 106
c46 3 56 -18 57 -48c1 -40 -152 -146 -273 -148c-96 0 -159 20 -210 42z" />
    <glyph glyph-name="R" unicode="R" horiz-adv-x="690" 
d="M471 517c-132 -56 -228 -168 -226 -238c1 -32 10 -64 58 -62c65 4 195 115 198 227c1 29 -11 54 -30 73zM581 243c-2 9 -6 15 -16 14c-4 -1 -9 1 -10 -4c-2 -9 12 -10 21 -10h5zM744 495c-92 -58 -128 -136 -192 -226c4 2 8 2 12 3c19 4 34 -8 43 -25
c83 24 158 133 152 205c-2 16 -7 30 -15 43zM763 520c8 3 17 7 27 11l6 -9c-7 -3 -13 -6 -19 -9c-2 -1 -4 -2 -5 -3c22 -25 35 -59 32 -101c-3 -61 -86 -158 -191 -176c5 -14 8 -29 7 -44c-3 -64 -73 -106 -73 -172c0 -17 -4 -27 11 -27c48 -1 81 31 119 67c5 4 9 8 13 13
l11 -11l-11 -9c-43 -35 -71 -74 -125 -75c-30 0 -60 11 -61 47c-5 86 74 136 78 183c1 7 1 17 1 26h-10c-14 0 -34 4 -36 17c-4 -6 -9 -11 -13 -17c-109 -139 -219 -244 -383 -247c-67 -1 -148 24 -146 91c0 26 10 55 36 56c18 0 40 -8 36 -32c-4 -28 -38 -28 -43 -7
c-2 11 1 9 3 13c-6 0 -12 -4 -14 -10c-4 -6 -2 -12 -2 -19c0 -60 73 -80 133 -78c142 5 199 115 293 222c100 114 166 217 284 280c5 3 10 5 14 7c-27 30 -74 45 -119 44c-45 -2 -88 -12 -129 -27c20 -22 32 -51 32 -83c0 -110 -76 -238 -224 -241c-43 -1 -64 33 -64 75
c0 89 97 198 226 254c-25 18 -58 28 -90 27c-88 -1 -152 -51 -219 -120c-9 -10 -15 -16 -24 -27l-9 4c7 11 12 17 21 27c74 85 153 139 260 128c31 -3 58 -14 79 -32c46 17 95 27 145 28c59 1 109 -14 143 -44z" />
    <glyph glyph-name="S" unicode="S" horiz-adv-x="639" 
d="M641 301c108 39 243 136 240 208c-1 16 -12 17 -16 17c-86 0 -155 -109 -224 -225zM627 279c-23 -42 -48 -82 -72 -119c-64 -93 -202 -187 -343 -185c-101 1 -200 63 -189 178c12 132 107 205 208 205c68 0 132 -24 133 -111c1 -103 -61 -160 -165 -167
c-45 -3 -64 35 -65 59c-3 50 37 74 67 88c14 6 24 9 39 10l-9 -16c-14 -3 -21 -6 -32 -13c-26 -16 -45 -33 -45 -63c0 -18 9 -49 47 -49c59 0 143 70 146 158c2 73 -62 89 -120 87c-89 -5 -169 -90 -175 -192c-6 -98 72 -157 160 -158c113 -2 212 95 288 212
c14 20 28 43 43 65c-75 2 -156 33 -158 108c-2 80 104 115 127 88c4 -5 7 -8 9 -13l-9 -6c-3 5 -5 8 -11 11c-24 15 -89 -13 -86 -77c3 -66 70 -98 138 -97c90 130 202 262 303 262c20 0 40 -12 39 -39c-6 -86 -152 -194 -268 -226zM239 442v-13h-7v14c-18 3 -36 6 -59 5
c-20 -1 -38 -9 -38 -28c0 -13 13 -20 26 -20c12 0 28 -1 30 11c1 3 -1 6 -3 9l7 7c3 -3 4 -5 6 -8c10 -19 -21 -36 -42 -36s-41 14 -42 34c0 30 25 51 54 52c22 2 41 -3 61 -7v14h7v-15c14 -3 29 -5 46 -4c33 2 52 18 50 54c-1 9 -7 12 -14 12c-5 0 -8 -3 -10 -8l-6 8
c2 4 5 7 10 10c14 8 34 -3 35 -21c3 -45 -20 -72 -60 -73c-20 -1 -36 1 -51 3z" />
    <glyph glyph-name="T" unicode="T" horiz-adv-x="569" 
d="M722 461c47 7 97 51 98 68c0 5 -4 8 -9 8c-22 0 -53 -30 -89 -76zM711 447c-54 -70 -116 -166 -175 -244c-102 -134 -239 -244 -403 -222c-69 10 -138 45 -138 115c0 26 10 54 35 55c21 2 39 -5 39 -22c0 -16 -24 -26 -36 -12c-4 5 -4 11 -2 17c-3 1 -6 1 -9 -1
c-12 -8 -13 -22 -11 -37c6 -69 75 -95 144 -100c146 -11 258 149 336 255c51 70 109 145 166 203c-37 9 -69 25 -72 73c-3 32 -37 50 -69 46c-96 -12 -224 -80 -225 -196c-1 -54 29 -72 68 -72c54 2 150 82 153 144c1 12 -1 19 -3 31l11 -3c3 -10 5 -18 5 -29
c0 -78 -85 -154 -168 -157c-48 -2 -83 20 -84 90c-2 144 160 213 254 211c44 -1 103 -18 105 -67c1 -33 19 -43 43 -54c54 51 106 85 153 84c9 0 15 -10 14 -20c-3 -35 -69 -86 -131 -88z" />
    <glyph glyph-name="U" unicode="U" horiz-adv-x="579" 
d="M587 345c92 80 218 185 219 198c0 5 5 12 -3 12c-50 -3 -137 -112 -207 -199c-3 -4 -6 -7 -9 -11zM419 184c33 63 78 126 124 181c81 100 188 210 262 204c12 0 26 -8 22 -18c-21 -64 -146 -144 -244 -228c-11 -9 -26 -25 -46 -44c-77 -108 -141 -227 -140 -278
c0 -16 10 -26 34 -26c24 1 91 42 138 85l16 15l14 -9l-20 -16c-55 -45 -114 -93 -156 -92c-48 1 -56 23 -56 53c-2 37 8 78 26 121c-87 -86 -179 -167 -224 -167c-28 0 -54 14 -58 41c-26 155 321 419 320 508c0 30 -25 53 -55 54c-168 11 -357 -147 -357 -267
c0 -36 21 -66 58 -64c80 2 156 82 193 176c4 11 7 18 10 30l5 -16c-1 -12 -4 -20 -7 -31c-33 -93 -109 -176 -190 -177c-51 0 -94 18 -94 76c0 192 246 296 377 294c38 0 98 -29 98 -78c-3 -170 -320 -410 -316 -505c0 -13 8 -23 24 -23c42 1 138 98 242 201z" />
    <glyph glyph-name="V" unicode="V" horiz-adv-x="392" 
d="M484 365c181 188 343 272 603 286c164 9 340 -14 373 -170c3 -16 5 -26 5 -43h-8c-1 17 -3 27 -8 43c-41 148 -214 162 -362 154c-274 -13 -421 -109 -608 -302c-138 -141 -222 -219 -387 -328c-15 -9 -23 -14 -37 -24l-40 24l53 67c106 139 144 233 256 368
c11 13 14 21 24 35c-7 -7 -13 -11 -21 -14c-9 -2 -15 -2 -24 -2c-90 -1 -40 111 -135 109c-70 -1 -129 -46 -140 -112c-9 -53 16 -78 55 -83c44 -5 74 10 97 50c11 18 19 28 24 49c0 -13 -1 -22 -5 -35c-15 -48 -52 -80 -102 -80c-45 0 -87 14 -85 80c3 83 72 147 155 147
c100 0 79 -103 125 -107c48 -4 81 32 109 64c9 10 13 16 20 27l23 -8c-7 -11 -11 -18 -19 -29c-82 -126 -112 -209 -200 -331c-48 -67 -78 -105 -133 -168l112 85c115 92 181 146 280 248z" />
    <glyph glyph-name="W" unicode="W" horiz-adv-x="579" 
d="M497 135c107 96 157 161 264 254c200 174 356 254 619 268c165 8 340 -14 373 -171c4 -16 5 -26 6 -43h-8c-2 17 -4 27 -8 43c-42 148 -215 162 -363 155c-273 -14 -405 -87 -608 -266c-150 -132 -214 -217 -375 -350c-24 -20 -40 -27 -66 -44l-24 8c10 12 17 20 26 32
c23 30 34 49 51 83c45 88 81 135 125 227c13 25 18 40 27 66l-51 -53c-118 -127 -194 -198 -322 -317l-35 -32l-28 10c21 26 32 42 53 67c112 133 144 233 256 368c11 13 14 21 24 35c-6 -7 -12 -11 -21 -14c-9 -2 -15 -2 -24 -2c-89 -1 -40 111 -135 109
c-70 -1 -129 -52 -140 -112c-9 -53 16 -78 55 -83c45 -5 74 10 97 50c11 18 20 28 24 49c0 -13 -1 -22 -5 -35c-15 -48 -52 -80 -101 -80c-46 0 -87 14 -86 80c2 98 72 147 155 147c101 0 79 -103 125 -107c48 -4 81 32 110 64c8 10 12 16 20 27l28 -8l-19 -32
c-77 -130 -126 -199 -208 -325c-9 -14 -12 -23 -20 -38l64 64c203 204 175 167 275 280c12 14 18 21 29 35l24 -11c-12 -14 -19 -22 -29 -37c-74 -106 -129 -272 -216 -392c-14 -19 -18 -31 -30 -51z" />
    <glyph glyph-name="X" unicode="X" horiz-adv-x="957" 
d="M701 439c102 92 223 157 317 156c53 -1 108 -30 104 -88c-7 -93 -119 -200 -195 -206c-64 -4 -80 21 -82 56c-4 68 47 120 112 133c17 3 26 0 42 -5l8 -10c-24 0 -40 -4 -62 -14c-44 -20 -80 -53 -79 -93c1 -26 9 -51 48 -51c77 0 178 100 192 195c5 37 -45 67 -88 64
c-212 -14 -457 -339 -480 -483c-11 -68 37 -83 81 -82c86 0 227 94 230 180c0 18 -1 34 -23 33c-76 -5 -103 -41 -143 -96c-8 -11 -10 -19 -14 -32h-14c4 17 5 26 14 40c36 61 77 101 154 104c33 1 40 -26 40 -51c0 -74 -144 -203 -248 -197c-64 4 -130 19 -122 109
c1 18 5 37 10 55c-95 -87 -213 -154 -335 -153c-54 0 -101 6 -128 53c-11 19 -16 32 -16 53c0 17 3 28 11 43h8c-4 -16 -5 -26 -3 -43c2 -18 6 -29 16 -45c30 -49 82 -41 139 -43c151 -4 500 389 492 498c-4 46 -47 64 -90 62c-140 -4 -316 -156 -317 -265
c0 -37 31 -49 61 -49c69 -2 168 114 188 181c7 21 8 34 8 56h18c0 -22 -2 -35 -7 -56c-27 -117 -127 -205 -205 -204c-58 1 -90 30 -86 81c11 121 202 275 340 278c56 1 97 -30 111 -91c5 -19 1 -43 -7 -73z" />
    <glyph glyph-name="Y" unicode="Y" horiz-adv-x="537" 
d="M647 412c64 52 135 109 137 122c1 9 -5 12 -11 12c-22 1 -71 -58 -126 -134zM488 265c76 109 207 307 294 298c11 -1 23 0 24 -15c1 -41 -105 -109 -177 -172c-8 -8 -17 -15 -26 -24l-93 -132c-93 -131 -225 -230 -345 -230c-77 0 -162 32 -166 109c-1 26 22 50 44 48
c13 -1 22 -10 21 -24c-1 -20 -35 -24 -37 -8c-1 4 0 6 0 9c-3 -1 -5 -1 -8 -3c-8 -6 -8 -14 -8 -23c0 -51 81 -95 155 -93c106 4 205 114 277 200c-34 -26 -66 -43 -96 -43c-26 0 -51 12 -49 39c7 101 207 264 205 309c0 21 2 49 -24 50c-116 5 -305 -140 -305 -240
c0 -25 12 -45 43 -46c83 -1 144 98 181 159c4 7 5 12 7 20l6 -7c0 -8 0 -14 -3 -21c-37 -88 -119 -172 -191 -169c-37 1 -60 27 -60 59c1 112 194 272 330 262c28 -2 58 -32 62 -68c8 -89 -205 -247 -209 -311c-1 -12 -3 -22 9 -22c42 0 89 40 139 89z" />
    <glyph glyph-name="Z" unicode="Z" horiz-adv-x="667" 
d="M519 501c44 1 100 38 96 58c-1 6 -9 6 -16 6c-18 1 -47 -26 -80 -64zM250 170c-87 -9 -178 -103 -183 -135c-2 -16 10 -18 20 -18c28 0 96 73 163 153zM505 484c-30 -35 -60 -76 -87 -112c-44 -59 -93 -127 -142 -188c71 -3 92 -55 127 -108c16 -23 26 -49 54 -49
c100 -2 180 129 189 186c3 18 -11 35 -28 35c-59 -1 -92 -59 -136 -108c-15 -17 -19 -31 -27 -52l-8 7c5 18 7 29 16 45c40 67 98 122 148 127c26 2 50 -18 50 -44c0 -76 -92 -209 -207 -214c-49 -2 -87 20 -112 52c-31 40 -46 103 -77 109c-74 -94 -145 -170 -186 -167
c-17 1 -28 8 -29 32c-1 44 99 144 211 149c24 28 46 57 66 83c54 69 110 154 160 219c-21 4 -50 17 -62 34c-18 23 -23 48 -51 53c-41 8 -76 -33 -76 -74c0 -27 25 -47 53 -50c22 -2 38 4 52 20c5 6 8 10 11 16l8 -10c-5 -12 -11 -19 -21 -27c-12 -9 -21 -12 -35 -13
c-40 -5 -81 23 -83 62c-2 46 33 87 80 92c46 6 76 -18 99 -56c8 -13 24 -24 40 -29c40 47 77 80 107 77c10 0 18 -6 20 -16c6 -40 -66 -78 -124 -81z" />
    <glyph glyph-name="underscore" unicode="_" horiz-adv-x="316" 
d="M61 77c-18 -2 -28 -5 -44 -14c-12 -6 -19 -12 -29 -21v20c8 8 13 12 23 18c18 11 31 17 52 17c84 3 83 -114 152 -100c35 8 50 26 77 49c10 9 15 14 24 24l16 18v-20l-16 -18c-7 -8 -11 -13 -18 -19c-30 -28 -53 -48 -95 -50c-74 -3 -76 106 -142 96z" />
    <glyph glyph-name="a" unicode="a" horiz-adv-x="381" 
d="M75 1c24 -11 146 88 170 119l74 92c10 14 33 45 15 45c-80 0 -312 -234 -259 -256zM-10 59l10 11c3 3 7 7 11 10c116 109 267 223 344 189c4 -2 6 -5 10 -8l20 20l27 -13l-149 -188c-20 -26 -50 -83 12 -83c21 0 54 26 82 49c10 9 16 15 24 24l12 -3l-12 -17
c-6 -7 -12 -13 -18 -19c-36 -35 -72 -58 -115 -58s-66 38 -56 57l6 11l-26 -20c-35 -26 -77 -48 -115 -48c-66 2 -36 77 -8 110l24 28l17 18l-48 -42c-10 -9 -15 -16 -25 -24c-6 -4 -11 -9 -17 -13z" />
    <glyph glyph-name="b" unicode="b" horiz-adv-x="456" 
d="M298 341l142 129c32 29 76 65 75 84c0 9 1 12 -14 14c-28 4 -92 -91 -132 -140zM91 153c54 80 130 174 187 244c49 58 175 194 221 191c22 -1 34 -5 33 -34c-2 -38 -49 -72 -89 -107l-222 -200c-86 -104 -159 -198 -161 -224c-1 -14 9 -19 19 -20c44 -5 225 151 232 245
v21h24c1 -14 4 -22 12 -32c18 -26 40 -24 68 -24c16 0 31 4 41 8l15 -5l-15 -15c-11 -4 -41 -10 -67 -9c-25 1 -41 9 -62 23c-4 -11 -8 -17 -14 -27c-68 -106 -196 -214 -250 -215c-18 0 -50 14 -44 43c4 21 18 51 39 85l-58 -51v20z" />
    <glyph glyph-name="c" unicode="c" horiz-adv-x="287" 
d="M287 50c-4 -5 -8 -11 -13 -15c-41 -39 -119 -68 -179 -62c-61 7 -74 60 -53 97l15 26l-57 -46l-11 10l11 10l37 31c18 15 32 28 46 44c63 72 160 143 206 143c28 0 50 -17 50 -42c1 -25 -11 -47 -42 -46c-34 2 -36 43 4 45c8 0 14 -4 18 -11c2 7 1 12 0 20
c-2 10 -12 14 -22 14c-62 -1 -197 -164 -211 -226c-8 -35 1 -42 29 -45c53 -7 123 22 155 57c6 7 12 10 17 16l13 -5z" />
    <glyph glyph-name="d" unicode="d" horiz-adv-x="377" 
d="M73 -1c24 -10 136 94 162 124l76 89c9 11 32 37 14 37c-80 0 -305 -227 -252 -250zM-10 59l10 11c3 3 7 7 11 10c116 109 258 223 335 189c5 -2 7 -5 11 -8l298 359h48l-440 -540c-22 -27 -45 -83 3 -83c21 0 61 23 91 49c9 8 16 15 24 24l12 -3l-12 -17
c-6 -7 -11 -13 -18 -19c-40 -36 -82 -58 -124 -58c-43 0 -57 36 -47 56l6 11l-26 -20c-35 -27 -77 -47 -115 -47c-66 2 -36 77 -8 110l24 28l17 18l-48 -42c-10 -9 -15 -16 -25 -24c-6 -4 -11 -9 -17 -13z" />
    <glyph glyph-name="e" unicode="e" horiz-adv-x="303" 
d="M168 176c5 1 11 1 17 2c69 7 150 65 152 93c0 7 -11 6 -18 5c-32 -4 -102 -50 -151 -100zM152 159c-7 -6 -12 -14 -17 -21c-24 -35 -41 -71 -42 -97c-4 -86 152 -39 205 28l5 6l8 -10l-12 -15c-54 -65 -114 -80 -196 -78c-49 1 -90 59 -49 120l9 14l-23 -21
c-9 -8 -13 -14 -22 -21c-6 -5 -11 -9 -18 -14l-16 -13l1 17c5 5 10 11 15 16c44 40 107 109 171 163c50 41 92 56 161 63c21 2 26 -21 23 -35c-6 -30 -70 -77 -140 -95c-24 -6 -40 -8 -63 -7z" />
    <glyph glyph-name="f" unicode="f" horiz-adv-x="199" 
d="M-57 -124c-100 -56 -185 -104 -188 -155c-1 -14 0 -33 22 -33c42 0 100 78 166 188zM286 349c167 150 267 226 263 275c-2 15 -12.962 20 -26 20c-47 0 -147 -154 -237 -295zM161 252l-48 7l2 27l61 -9l51 78c95 138 202 310 296 310c31.064 0 44 -12 44 -45
c-2 -69 -176 -201 -320 -333l-12 -18l61 -9l-4 -28s-72 11 -73 11l-172 -288c38 23 74 48 106 75c17 15 29 23 45 40l12 13l-1 -22l-12 -11c-11 -10 -20 -22 -36 -35c-40 -34 -86 -64 -134 -92c-92 -144 -180 -260 -253 -256c-38 1 -46 21 -45 50c1 71 112 125 232 190
l126 221c-24 -25 -52 -50 -87 -78l-10 -8l-1 17l11 11l133 136c9 15 18 31 28 46z" />
    <glyph glyph-name="g" unicode="g" horiz-adv-x="325" 
d="M73 0c24 -11 149 89 174 120l73 92c12 15 33 45 15 45c-80 0 -315 -234 -262 -257zM83 -117c-5 -2 -9 -5 -14 -7c-91 -47 -215 -87 -208 -162c2 -13 10 -21 24 -22c56 -6 120 80 198 191zM189 -35c12 7 26 16 40 25c39 27 60 45 94 79l11 1l-1 -13l-10 -8
c-40 -38 -64 -59 -110 -89c-19 -13 -36 -24 -52 -33c-100 -137 -199 -262 -276 -260c-18 1 -48 12 -48 47c-2 101 133 134 238 191c12 6 24 12 35 18l71 102l14 19l-26 -20c-35 -27 -74 -45 -111 -45c-62 0 -35 70 -8 102c12 14 17 22 29 36l12 13l-49 -43
c-10 -9 -15 -15 -25 -24c-6 -5 -10 -8 -17 -13l-10 9l10 11c4 4 7 6 11 10c116 109 260 220 335 189c5 -2 7 -4 11 -8l18 20l39 -14l-142 -188z" />
    <glyph glyph-name="h" unicode="h" horiz-adv-x="416" 
d="M396 406c98 81 171 144 174 165c1 10 -1 23 -11 24c-28 3 -94 -92 -163 -189zM249 285c14 17 28 34 42 54c88 114 184 283 248 277c31 -3 57 -21 51 -45c-13 -53 -129 -149 -258 -251c-5 -5 -9 -11 -13 -16l-57 -72c19 15 37 23 55 35c25 16 44 24 74 26
c34 3 67 -16 52 -61c-10 -33 -162 -159 -170 -195c-4 -20 2 -40 39 -40c24 0 70 36 103 72l10 10v-19l-10 -10c-41 -41 -74 -77 -126 -77c-60 0 -65 50 -56 75c26 76 158 161 170 211c2 8 2 14 -18 13c-91 -5 -203 -144 -303 -265l-25 -31l-30 40l75 96c23 29 45 54 65 77
c-50 -40 -96 -78 -133 -112l-34 -27l-11 -3l-2 9l14 14c74 69 162 145 248 215z" />
    <glyph glyph-name="i" unicode="i" horiz-adv-x="223" 
d="M97 -27c-26 0 -60 24 -60 46c0 29 0 46 33 89c-14 -13 -19 -16 -30 -25c-15 -13 -25 -21 -40 -33l-17 6l17 14l45 43c55 54 78 90 136 146c10 9 15 18 23 30l31 -27l-127 -167c-13 -18 -26 -48 -27 -68c-2 -20 14 -32 30 -31c34 1 66 23 92 51l20 23l10 -11l-10 -9
l-16 -18c-34 -36 -62 -59 -110 -59zM289 343c0 -25 -37 -25 -37 0c0 24 37 24 37 0z" />
    <glyph glyph-name="j" unicode="j" horiz-adv-x="165" 
d="M289 343c0 -25 -37 -25 -37 0c0 24 37 24 37 0zM-75 -132c-89 -56 -164 -103 -170 -141c-2 -18 -1 -42 20 -42c44 2 92 97 139 166c4 6 8 12 11 17zM-12 -91l-27 -42c-54 -82 -138 -200 -188 -202c-30 -2 -45 27 -43 54c4 60 111 122 223 192c24 37 43 70 70 116l58 96
c-16 -16 -26 -26 -42 -40c-15 -14 -24 -21 -39 -33l-17 6l17 14l87 85c38 39 60 60 94 102c10 12 16 18 25 30l25 -19l-22 -35l-88 -128l-104 -154c46 31 90 62 125 96l23 23l11 1l-1 -12l-10 -9l-16 -17c-46 -46 -104 -87 -161 -124z" />
    <glyph glyph-name="k" unicode="k" horiz-adv-x="353" 
d="M335 358c123 106 236 207 237 221c0 8 0 18 -8 18c-50 3 -92 -57 -135 -112c-44 -56 -70 -92 -94 -127zM243 235c-8 -9 -16 -20 -25 -30s-17 -20 -24 -30h29c38 0 151 53 149 86c-1 14 -2 22 -27 22c-18 0 -44 -21 -72 -34zM186 165l-157 -189l-36 24
c44 57 85 102 127 152l-77 -65c-16 -13 -26 -23 -43 -37l-11 10l11 10c16 15 25 25 42 39l137 116v1c128 166 281 397 369 395c21 0 52 -8 51 -34c-2 -38 -163 -175 -318 -303c-4 -5 -8 -11 -13 -17c1 0 13 9 13 9c27 17 46 26 78 28c40 3 68 -15 65 -47
c-4 -34 -29 -51 -65 -70c-18 -9 -29 -15 -48 -19c0 -8 1 -15 0 -24c-8 -46 -103 -73 -104 -105c0 -32 18 -48 38 -48c22 0 54 16 78 40l39 40l13 -9l-46 -43c-16 -14 -54 -44 -84 -46c-31 -2 -72 18 -71 60c1 52 84 82 79 120c-2 16 -23 12 -38 12h-29z" />
    <glyph glyph-name="l" unicode="l" horiz-adv-x="219" 
d="M255 293c135 117 255 224 255 247c0 13 -5 17 -18 16c-27 -3 -135 -128 -237 -263zM114 171l81 102c104 129 237 300 303 301c27 0 35 -12 32 -34c-5 -39 -161 -171 -320 -308l-63 -89c-28 -43 -70 -85 -71 -114c-1 -16 7 -33 21 -33c24 0 44 6 63 23l58 51l11 -8
l-11 -12l-46 -45c-16 -15 -53 -32 -83 -32c-26 0 -61 16 -61 55c0 18 16 47 40 81c-3 -3 -7 -6 -11 -9l-57 -50l-10 9l10 11c13 11 23 22 34 31z" />
    <glyph glyph-name="m" unicode="m" horiz-adv-x="591" 
d="M576 192l-106 -120c-17 -21 -24 -38 -25 -45c-1 -20 17 -32 32 -31c35 1 66 23 92 51l21 23l10 -11l-10 -9l-17 -18c-33 -36 -62 -59 -109 -59c-27 0 -63 22 -64 46c-1 20 5 39 20 59c29 38 78 89 119 135c8 10 22 34 -6 34c-19 0 -52 -14 -74 -38l-213 -236l-31 23
l185 223c12 14 3 25 -11 25c-40 0 -81 -33 -117 -71l-187 -200l-31 19l186 225c8 10 15 34 1 34c-19 0 -32 -10 -62 -38l-179 -163l-11 11l180 171c22 21 34 34 70 36c51 3 40 -31 32 -53l-4 -11c18 15 31 24 52 35c25 13 42 26 69 26c39 0 47 -12 45 -34l-1 -14
c14 12 24 19 40 27c23 11 41 21 64 21c48 -1 63 -46 40 -73z" />
    <glyph glyph-name="n" unicode="n" horiz-adv-x="490" 
d="M345 27c-1 -20 17 -32 32 -31c35 1 66 23 92 51l21 23l10 -11l-10 -9l-17 -18c-33 -36 -62 -59 -109 -59c-27 0 -65 22 -64 46c1 16 5 39 20 59c29 38 81 88 123 134c8 9 13 31 -11 32c-46 1 -72 -16 -101 -48l-208 -223l-36 24l185 220c9 12 -7 33 -23 32
c-31 -2 -46 -12 -67 -31l-182 -168l-16 5l184 177c22 21 45 33 72 36c23 2 38 -5 53 -21c8 -9 13 -16 16 -27l18 15c34 28 75 31 110 29c32 -1 72 -39 42 -72c-41 -44 -84 -91 -109 -120c-17 -21 -24 -38 -25 -45z" />
    <glyph glyph-name="o" unicode="o" horiz-adv-x="470" 
d="M373 247c2 20 -8 24 -24 24c-37 0 -222 -148 -228 -234c0 -10 2 -24 28 -25c74 -5 221 173 224 235zM265 266c30 17 64 25 90 26c28 1 36 -17 37 -37c2 -6 5 -12 9 -18c10 -13 18 -24 36 -24c25 0 22 2 34 8l14 -5l-14 -15c-14 -4 -20 -9 -44 -9c-17 0 -24 5 -42 19
c-34 -104 -173 -224 -252 -220c-28 0 -61 14 -61 42c0 30 23 81 55 118c-22 -16 -40 -28 -64 -47c-18 -15 -27 -26 -46 -41c-6 -4 -11 -9 -17 -13l-9 7l9 13c3 3 7 7 11 10c67 62 104 104 185 148z" />
    <glyph glyph-name="p" unicode="p" horiz-adv-x="336" 
d="M352 228c-1 28 -11 25 -24 27c-40 7 -222 -140 -229 -231c-1 -15 12 -25 29 -28c49 -10 225 155 224 232zM165 225h1l141 180l48 -18l-116 -145c32 20 63 32 89 33c40 0 51 -20 51 -46c2 -79 -111 -183 -200 -231l40 3c41 3 78 28 98 49l20 20l11 -3l-11 -17l-16 -17
c-30 -33 -67 -50 -110 -55c-33 -3 -79 -10 -111 -10c-38 0 -47 26 -49 41l-256 -316l-39 22l311 386c12 15 24 29 34 42l-101 -93l-10 9l10 11l107 101l58 53v1z" />
    <glyph glyph-name="q" unicode="q" horiz-adv-x="339" 
d="M75 0c25 -11 150 89 174 120l74 92c5 7 37 45 15 45c-80 0 -315 -234 -263 -257zM206 7c12 -3 29 -6 43 0c26 10 45 20 67 40l23 22l18 -3l-18 -17l-17 -17c-23 -23 -41 -32 -71 -42c-15 -5 -24 -2 -40 1c0 -12 2 -18 0 -30c-32 -130 -121 -298 -202 -290
c-28 2 -52 12 -59 40c-19 75 74 169 165 262l70 71l-26 -20c-36 -27 -64 -45 -101 -45c-62 0 -35 70 -8 102c11 14 21 28 28 36l12 12l-48 -42c-10 -9 -15 -15 -25 -24c-6 -5 -10 -8 -17 -13l-10 9l10 11c4 4 7 6 11 10c116 109 272 220 347 189c5 -2 7 -4 11 -8l18 20
l28 -13l-148 -188c-19 -24 -40 -48 -61 -73zM195 -5c-99 -112 -207 -220 -206 -263c1 -40 18 -41 32 -41c38 0 106 100 140 182c20 45 28 76 34 122z" />
    <glyph glyph-name="r" unicode="r" horiz-adv-x="375" 
d="M217 251l-25 -32c-57 -71 -113 -106 -175 -156c-5 -4 -11 -9 -17 -13l-9 7l9 13c3 3 8 5 11 7c56 48 90 80 134 143c27 39 41 63 61 105l43 -26l-1 -1c5 -5 11 -9 17 -13c32 -19 63 -10 104 -8c10 1 18 3 28 4v-25c-9 -8 -14 -13 -22 -21c-62 -64 -143 -127 -143 -181
c0 -29 7 -58 48 -58c27 0 60 39 72 51l23 23l11 -3l-11 -17l-12 -13c-16 -18 -54 -62 -84 -62c-42 0 -84 12 -84 83c0 61 96 111 130 154c10 13 14 16 24 24c-13 -4 -23 -7 -36 -8c-32 -4 -53 1 -82 15c-6 2 -10 5 -14 8z" />
    <glyph glyph-name="s" unicode="s" horiz-adv-x="340" 
d="M27 73c7 -33 32 -70 61 -70c15 1 32 15 49 36c-21 33 -38 69 -54 80c-7 -5 -15 -12 -24 -20zM56 122c-15 -3 -25 -10 -29 -24v-3c10 10 20 18 29 27zM106 139c19 -18 32 -48 47 -77c22 32 42 73 58 109c10 21 12 36 18 57c-14 -11 -28 -22 -46 -34zM8 56l-8 -7l-9 7l9 14
c2 1 3 3 5 5v10c-1 35 32 64 66 67c6 1 12 0 17 -2c7 5 13 10 19 15l178 143l28 -8c-3 -3 -6 -5 -10 -9c-12 -31 -25 -50 -38 -82c-27 -68 -25 -152 -77 -196c10 -10 22 -16 37 -16c30 -2 74 33 92 51l23 22l11 -3l-11 -17l-14 -15c-31 -34 -75 -61 -101 -61
c-22 0 -40 10 -56 25c-20 -11 -45 -18 -78 -19c-42 -2 -73 33 -83 76z" />
    <glyph glyph-name="t" unicode="t" horiz-adv-x="251" 
d="M177 241h-42v22h64l88 89l74 77h42c-26 -32 -43 -52 -68 -85l-63 -81h49v-22h-66c-72 -95 -142 -190 -143 -209c-1 -17 5 -35 29 -35c26 0 70 34 87 51l22 22l11 -3l-11 -17l-12 -13c-33 -38 -73 -62 -108 -64c-27 0 -71 16 -69 54c1 40 37 89 74 135c9 11 15 17 24 27
l-159 -139l-9 7l9 13c3 3 7 7 11 10c66 63 116 110 166 161z" />
    <glyph glyph-name="u" unicode="u" horiz-adv-x="393" 
d="M218 265l33 -32c-16 -15 -25 -24 -40 -40c-45 -46 -98 -103 -110 -124c-8 -15 -36 -52 -2 -55c39 -4 138 103 216 178c26 25 42 42 66 69l32 -34c-8 -8 -14 -13 -21 -22c-47 -52 -77 -83 -123 -138c-6 -8 -17 -20 -18 -40c-2 -20 14 -32 30 -31c34 1 66 23 92 51l20 23
l10 -11l-10 -9l-16 -18c-34 -36 -62 -59 -110 -59c-26 0 -60 24 -60 46c0 7 -2 20 17 45c-56 -53 -114 -90 -165 -90c-20 0 -40 15 -40 35c0 32 23 68 54 106l-73 -65l-9 7l9 13s206 185 218 195z" />
    <glyph glyph-name="v" unicode="v" horiz-adv-x="623" 
d="M501 274c0 -15 4 -25 13 -37c14 -19 32 -24 55 -24c26 -1 42 2 54 8l15 -5l-15 -15c-13 -6 -39 -9 -64 -9c-30 0 -49 12 -68 33c-1 -5 -3 -11 -6 -17c-38 -93 -170 -205 -237 -211c-31 -2 -61 20 -61 29c-4 80 138 162 142 213c1 10 -15 11 -26 10
c-92 -12 -195 -103 -286 -186c-6 -5 -11 -8 -17 -13l-9 7l10 12l10 10c85 84 230 198 303 196c32 0 77 1 77 -28c2 -79 -154 -165 -145 -208c1 -8 3 -16 14 -16c31 1 195 105 212 225c2 15 3 25 3 40l26 -13v-1z" />
    <glyph glyph-name="w" unicode="w" horiz-adv-x="631" 
d="M193 245l19 22l31 -33l-38 -39c-43 -47 -95 -105 -106 -126c-8 -14 -28 -66 4 -66c41 -2 132 112 209 189c25 26 43 42 67 69l29 -34c-8 -8 -14 -14 -21 -22c-62 -64 -136 -168 -137 -186c0 -8 3 -18 11 -19c29 -4 202 121 219 248c1 15 3 25 3 40l26 -13v-5
c0 -13 4 -23 12 -33c14 -18 32 -24 56 -24c25 -1 42 3 54 8l14 -5l-14 -15c-14 -6 -40 -9 -64 -9c-30 0 -50 13 -68 33c-2 -5 -4 -11 -6 -17c-24 -75 -171 -227 -240 -235c-38 -3 -64 31 -50 56l19 32l-37 -50c-7 -8 -59 -47 -103 -46c-27 1 -50 16 -49 40
c0 40 22 79 52 118c0 1 -84 -73 -84 -73l-10 8l10 13l191 173z" />
    <glyph glyph-name="x" unicode="x" horiz-adv-x="256" 
d="M201 241c45 28 90 48 123 45c25 -1 36 -14 39 -34c3 -25 -20 -47 -44 -45c-38 2 -17 56 10 38c4 -2 5 -6 6 -9c5 3 8 7 9 13c1 13 -13 22 -25 22c-82 -4 -214 -176 -215 -222c-1 -26 5 -50 23 -52c40 -8 82 28 117 61l12 11l11 -5l-11 -14l-24 -24
c-37 -37 -73 -60 -123 -52c-34 6 -53 47 -50 86c1 14 5 28 11 42l-70 -52l-15 9l15 11l77 73c43 40 94 78 91 125c-1 23 -55 31 -59 14c-1 -3 0 -5 0 -9c3 4 7 6 12 6c29 5 25 -27 14 -36c-16 -12 -42 -8 -49 17c-7 21 13 49 49 50c32 1 68 -24 68 -57c0 -4 -1 -8 -2 -12z
" />
    <glyph glyph-name="y" unicode="y" horiz-adv-x="422" 
d="M187 -114c-6 -3 -12 -7 -19 -10c-91 -47 -215 -87 -208 -162c1 -13 9 -21 23 -22c58 -6 126 79 204 194zM261 -3c-24 -16 -54 -24 -75 -24c-23 0 -50 9 -50 32c-1 71 149 190 161 236c1 6 0 14 -7 15c-35 4 -170 -99 -264 -183l-26 -23l-9 9l9 11l37 34
c74 69 202 170 257 167c33 -2 48 -3 47 -24c-2 -71 -157 -200 -158 -241c0 -8 3 -17 11 -17c28 -4 75 42 111 80l44 47v1s2 1 1 1c0 1 124 163 124 163l39 -14l-142 -188l-84 -115c12 7 26 16 40 26c39 27 61 46 95 79l11 1l-1 -13l-10 -8c-40 -37 -65 -58 -110 -89
c-19 -13 -37 -24 -53 -34c-99 -136 -198 -261 -276 -259c-17 0 -48 12 -48 47c-1 101 134 135 239 191l39 20z" />
    <glyph glyph-name="z" unicode="z" horiz-adv-x="232" 
d="M165 -14c-119 -106 -268 -199 -270 -273c0 -12 5 -25 18 -26c76 -4 211 179 252 299zM181 224c12 12 19 21 19 29c0 10 -3 15 -12 15c-13 0 -15 -10 -16 -20c-1 -11 3 -19 9 -24zM291 237c11 9 22 18 36 28l13 -14l-114 -90l-101 -78c8 4 14 5 22 6c31 2 61 4 69 -34
l16 15l15 -2l-15 -18l-14 -14v-9c-3 -58 -120 -360 -303 -357c-12 0 -45 1 -43 41c5 100 172 192 302 305c2 10 3 19 3 27c1 15 -15 25 -30 26c-25 3 -39 -8 -59 -22l-73 -48l-8 10c282 230 123 94 182 147c44 41 -45 -33 72 58c-6 -2 -14 -5 -21 -7c-19 -8 -41 -7 -57 0
c-36 -38 -99 -84 -148 -127l-35 -30l-10 10l10 10l37 35c42 38 100 78 134 109c-10 8 -15 19 -14 33c2 19 13 36 36 34c16 -1 20 -11 20 -28c0 -9 -7 -21 -19 -35c12 -3 26 -3 30 -2c13 3 23 3 36 8c13 4 22 8 31 13z" />
    <glyph glyph-name="braceleft" unicode="{" horiz-adv-x="219" 
d="M26 192c2 -10 0 -15 -1 -25c-17 -108 -146 -216 -221 -363c-10 -20 -24 -47 -12 -58c3 -3 5 -5 11 -6c-10 -3 -26 -1 -30 7c-6 14 7 50 21 77c74 144 215 273 216 361c0 8 -1 8 -4 12c-3 6 -8 10 -15 12c11 1 18 0 29 4c30 12 106 70 161 131c80 89 114 151 202 235
c34 32 75 74 103 80c11 3 25 -1 36 -2c-7 -1 -11 -2 -19 -4c-28 -6 -85 -56 -126 -103c-75 -85 -114 -147 -190 -221c-52 -52 -96 -90 -146 -120c-6 -4 -11 -6 -18 -8c2 -4 2 -6 3 -9z" />
    <glyph glyph-name="braceright" unicode="}" horiz-adv-x="219" 
d="M238 192c7 4 10 5 17 9c-2 2 -6 4 -6 8c-8 105 156 257 227 389c9 17 14 31 13 47c-1 9 -12 11 -20 12c7 8 30 8 38 0c6 -5 8 -11 6 -18c-38 -162 -260 -322 -239 -434c1 -8 11 -4 19 -6c-14 -5 -22 -6 -34 -12c-203 -116 -246 -316 -460 -440c-12 -6 -28 -8 -43 -7
c8 2 13 2 20 6c203 120 248 323 462 446z" />
    <glyph glyph-name="a.high" horiz-adv-x="248" 
d="M-52 -5c52 -9 303 260 258 262c-80 5 -333 -250 -258 -262zM135 -3c20 -1 60 24 89 49c10 8 16 15 24 24l12 -3l-12 -17c-5 -7 -11 -13 -18 -19c-39 -36 -80 -58 -123 -58c-42 0 -50 37 -45 57l3 13l-23 -22c-33 -29 -70 -48 -103 -48c-78 2 -47 75 -20 108
c41 50 67 80 115 120c9 8 15 13 25 20c-16 -5 -26 -9 -43 -14c-6 -2 -10 -4 -16 -6l-13 8l13 12l33 10c53 19 87 34 132 44c9 1 32 3 58 -6c5 -1 8 -5 11 -8l19 20l29 -14l-35 -44c-66 -84 -200 -220 -112 -226z" />
    <glyph glyph-name="c.high" horiz-adv-x="211" 
d="M41 215c-16 -5 -25 -8 -41 -14l-13 8l13 12c14 4 22 6 36 11c35 12 59 21 87 33c24 15 48 21 61 23c28 4 82 -7 80 -42c-1 -25 -11 -48 -43 -46c-33 2 -35 43 5 45c8 1 13 -4 17 -11c4 7 4 13 0 20c-4 9 -12 14 -22 14c-72 -1 -218 -164 -232 -226c-8 -35 12 -43 46 -47
c53 -6 128 25 160 59c6 7 10 9 17 16l13 -5l-13 -15c-5 -5 -8 -9 -13 -15c-40 -38 -116 -73 -180 -63c-72 11 -103 83 -46 158c25 33 65 79 90 93z" />
    <glyph glyph-name="longs" unicode="&#x17f;" horiz-adv-x="197" 
d="M287 349c166 150 266 226 262 275c-2 15 -13 21 -26 20c-46 -3 -147 -153 -236 -295zM-57 -124c-100 -56 -185 -104 -188 -155c-1 -14 0 -33 22 -33c42 0 100 78 166 188zM247 287l-15 -24c-61 -96 -123 -208 -185 -308c38 23 74 48 106 75c17 15 29 23 45 40l12 13
l-1 -22l-12 -11c-11 -10 -20 -22 -36 -35c-40 -34 -86 -64 -134 -92c-92 -144 -180 -260 -253 -256c-38 1 -46 21 -45 50c1 71 112 125 232 190l126 221c-24 -25 -52 -50 -87 -78l-10 -8l-1 17l11 11l133 137c31 52 63 102 94 148c95 138 202 304 296 310
c31 2 44 -12 44 -45c-2 -69 -176 -201 -320 -333z" />
    <glyph glyph-name="r.alt" horiz-adv-x="515" 
d="M393 235c-13 -6 -25 -13 -38 -24c-68 -55 -110 -97 -166 -171l-32 -43h-64l35 43c33 41 49 67 83 107c28 34 63 81 61 97c-1 6 -5 11 -11 12c-63 4 -148 -119 -244 -193c-6 -5 -10 -8 -17 -13l-9 7l9 13c4 4 7 6 11 10c95 89 181 203 264 205c30 1 72 -12 65 -41l-8 -32
c21 20 38 31 60 43c18 9 29 14 48 20l3 -19l-26 -10c1 -4 3 -7 5 -11c11 -20 29 -26 51 -30c25 -4 44 0 65 14l15 -3l-15 -17c-23 -13 -39 -17 -65 -14c-37 4 -62 19 -80 50z" />
    <glyph glyph-name="e.high" horiz-adv-x="206" 
d="M82 176c6 1 11 1 18 2c69 9 150 65 151 93c0 7 -10 6 -17 5c-33 -4 -103 -50 -152 -100zM63 217c-6 -2 -10 -2 -16 -4c-7 -2 -12 -4 -20 -6c-10 -3 -16 -4 -27 -6l-13 8l13 12c18 3 28 6 45 11c18 5 28 9 44 16c10 4 17 7 25 11c32 22 59 32 111 37c22 2 48 -21 45 -35
c-6 -30 -70 -77 -140 -95c-25 -6 -40 -8 -63 -7c-7 -6 -12 -14 -18 -21c-24 -35 -44 -74 -45 -100c-4 -86 161 -21 202 31l5 6l8 -10l-12 -15c-46 -55 -133 -82 -215 -78c-77 4 -45 101 -16 151c26 46 38 55 87 94z" />
    <glyph glyph-name="f.high" horiz-adv-x="151" 
d="M244 348c201 137 243 244 255 272c6 14 -13 21 -26 20c-46 -3 -141 -151 -229 -292zM-105 -125c-99 -56 -182 -103 -186 -154c-1 -14 0 -33 22 -33c42 0 98 78 164 187zM131.457 285.842l-47.457 7.15799l2 27l62.079 -8.91699
c87.549 132.944 216.962 351.764 328.921 353.917c31 0 58 0 57 -33c-1 -71 -146 -219 -315 -325l-3.56 -5.59399l51.56 -7.40601l-4 -28l-63.952 9.646c-64.042 -100.637 -125.515 -210.875 -189.048 -314.646c35 21 67 44 97 69c17 15 29 23 45 40l12 13l-1 -22l-12 -11
c-11 -10 -20 -22 -36 -35c-37 -32 -80 -60 -124 -86c-92 -146 -181 -263 -263 -262c-38 0 -46 21 -45 50c1 70 110 124 230 188c58 101 122 222 189 334c-20 -10 -46 -20 -91 -35l-8 -3l-15 8l11 10l10 4c48 16 77 28 114 50z" />
    <glyph glyph-name="o.high" horiz-adv-x="357" 
d="M221 247c1 20 -8 24 -24 24c-38 0 -222 -148 -228 -234c-1 -10 1 -23 28 -25c73 -5 220 173 224 235zM49 217c-6 -1 -1 0 -8 -2c-16 -5 -25 -8 -41 -14l-13 8l13 12c14 4 22 6 36 11c43 15 67 25 108 45c17 9 40 15 58 15c29 0 37 -17 37 -37c2 -6 5 -12 10 -18
c13 -20 32 -24 55 -24c25 -1 42 2 54 8l15 -5l-15 -15c-14 -5 -39 -9 -64 -9s-41 7 -62 20c-33 -105 -173 -225 -251 -221c-29 1 -62 14 -62 42c1 48 62 127 130 184z" />
    <glyph glyph-name="p.high" horiz-adv-x="244" 
d="M261 228c0 28 -10 25 -24 27c-40 7 -222 -140 -229 -231c-1 -15 13 -25 29 -28c50 -10 226 155 224 232zM145 311l72 94l48 -18l-117 -145c32 20 63 32 89 33c40 0 51 -20 51 -46c2 -79 -110 -183 -200 -230c13 0 26 1 39 2c40 3 78 28 98 49l19 20l11 -3l-11 -17
l-16 -17c-30 -33 -67 -50 -109 -55c-34 -3 -63 -9 -96 -6l3 2c-8 -2 -15 -3 -21 -2c-32 2 -42 22 -45 37l-255 -316l-40 22l312 386l100 126c-12 -4 -22 -7 -36 -12c-16 -5 -26 -9 -41 -14l-13 8l13 12c14 2 23 6 36 11c48 19 77 39 109 79z" />
    <glyph glyph-name="longs.high" horiz-adv-x="151" 
d="M244 348c201 137 243 244 255 272c6 14 -13 21 -26 20c-46 -3 -141 -151 -229 -292zM-105 -125c-99 -56 -182 -103 -186 -154c-1 -14 0 -33 22 -33c42 0 98 78 164 187zM219 307l-28 -44c-60 -95 -121 -204 -181 -302c35 21 67 44 97 69c17 15 29 23 45 40l12 13l-1 -22
l-12 -11c-11 -10 -20 -22 -36 -35c-37 -32 -80 -60 -124 -86c-92 -146 -181 -263 -263 -262c-38 0 -46 21 -45 50c1 70 110 124 230 188c58 101 122 222 189 334c-20 -10 -46 -20 -91 -35l-8 -3l-15 8l11 10l10 4c48 16 77 28 114 50l54 82c94 138 196 308 300 310
c31 0 58 0 57 -33c-1 -71 -146 -219 -315 -325z" />
    <glyph glyph-name="r.alt.high" horiz-adv-x="404" 
d="M80 267c23.313 13.988 44 18 62 18c30.017 0 72 -12 65 -41l-8 -32c21 20 38 31 60 43c18 9 29 14 48 20l3 -19l-26 -10c1 -4 3 -7 5 -11c11 -20 29 -26 51 -30c25 -4 44 0 65 14l15 -3l-15 -17c-23 -13 -39 -17 -65 -14c-37 4 -62 19 -80 50c-13 -6 -25 -13 -38 -24
c-68 -55 -110 -97 -166 -171l-32 -43h-64l35 43c33 41 49 67 83 107c28 34 63 81 61 97c-1 6 -4.91701 12 -11 12c-12 0 -20.192 -0.613998 -36 -10c-32 -19 -55 -33 -92 -45l-13 8l13 12c33 14 45 25 80 46z" />
    <glyph glyph-name="q.high" horiz-adv-x="215" 
d="M69 -5c-98 -112 -206 -220 -205 -263c1 -40 17 -41 32 -41c37 0 105 100 140 182c19 45 28 76 33 122zM-50 0c25 -11 149 89 174 120l73 92c6 7 38 45 16 45c-80 0 -316 -234 -263 -257zM36 232c49 16 82 27 129 40c26 7 49 5 68 -3c4 -2 6 -4 10 -8l19 20l28 -13
l-149 -188l-60 -73c12 -3 28 -6 43 0c26 9 45 20 67 40l23 22l18 -3l-18 -17l-17 -17c-23 -23 -41 -32 -71 -42c-15 -5 -25 -2 -41 1c1 -12 3 -18 0 -30c-31 -130 -120 -298 -201 -290c-28 2 -52 12 -59 40c-20 75 74 169 164 262l70 71l-26 -20c-35 -27 -63 -45 -100 -45
c-53 0 -36 62 -11 104c33 54 80 101 129 136c4 1 -3 -2 0 0c-3 -2 -6 -2 -10 -4c-16 -5 -25 -8 -41 -14l-13 8l13 12c14 4 22 7 36 11z" />
    <glyph glyph-name="endash" unicode="&#x2013;" horiz-adv-x="369" 
d="M14 133l31 32h280l-31 -32h-280z" />
    <glyph glyph-name="emdash" unicode="&#x2014;" horiz-adv-x="476" 
d="M14 133l31 32h387l-31 -32h-387z" />
    <glyph glyph-name="quotedblleft" unicode="&#x201c;" horiz-adv-x="224" 
d="M416 639c-9 57 38 100 73 93c8 -2 15 -5 22 -10c-5 -1 -8 -7 -14 -6c-17 5 -42 -5 -45 -42c-1 -7 1 -9 4 -12c1 6 7 10 13 11c40 3 41 -42 24 -62c-22 -24 -70 -12 -77 28zM509 574c-9 57 38 100 73 93c9 -2 15 -6 23 -10c-6 -2 -9 -8 -15 -6c-17 4 -41 -6 -45 -42
c0 -7 2 -9 4 -12c2 6 8 10 13 10c40 4 41 -41 24 -61c-22 -25 -70 -12 -77 28z" />
    <glyph glyph-name="quotedblright" unicode="&#x201d;" horiz-adv-x="224" 
d="M519 631c9 -56 -38 -100 -73 -92c-9 2 -15 5 -23 10c6 1 9 7 15 6c17 -5 41 5 45 42c0 6 -2 8 -4 12c-2 -6 -8 -10 -13 -11c-40 -3 -41 41 -24 61c22 25 70 12 77 -28zM626 692c9 -57 -38 -100 -73 -93c-8 2 -15 6 -22 10c5 2 8 8 14 6c17 -4 42 6 45 42c1 7 -1 9 -4 12
c-1 -6 -7 -10 -13 -10c-40 -4 -41 41 -24 61c22 25 70 12 77 -28z" />
    <glyph glyph-name="quoteleft" unicode="&#x2018;" horiz-adv-x="123" 
d="M416 639c-9 57 38 100 73 93c8 -2 15 -5 22 -10c-5 -1 -8 -7 -14 -6c-17 5 -42 -5 -45 -42c-1 -7 1 -9 4 -12c1 6 7 10 13 11c40 3 41 -42 24 -62c-22 -24 -70 -12 -77 28z" />
    <glyph glyph-name="quoteright" unicode="&#x2019;" horiz-adv-x="123" 
d="M519 692c9 -57 -38 -100 -73 -93c-9 2 -15 6 -23 10c6 2 9 8 15 6c17 -4 41 6 45 42c0 7 -2 9 -4 12c-2 -6 -8 -10 -13 -10c-40 -4 -41 41 -24 61c22 25 70 12 77 -28z" />
    <glyph glyph-name="v.high" horiz-adv-x="473" 
d="M352 270c1 -13 4 -23 13 -33c14 -19 32 -24 55 -24c25 -1 42 2 54 8l15 -5l-15 -15c-13 -6 -39 -9 -64 -9c-29 0 -49 12 -67 33c-2 -6 -4 -11 -6 -17c-38 -93 -216 -221 -284 -219c-32 1 -53 26 -54 35c-3 80 141 161 145 211c1 16 -9 14 -17 14c-20 0 -97 -36 -108 -42
c-7 -2 -12 -4 -19 -6l-13 8l13 12c5 1 8 2 12 4c32 17 87 47 134 46c24 -1 54 -8 50 -37c-9 -71 -141 -150 -141 -194c0 -9 4 -16 15 -16c31 1 237 115 253 224c2 15 3 25 3 40l27 -13c0 -2 -1 -4 -1 -5z" />
    <glyph glyph-name="w.high" horiz-adv-x="583" 
d="M461 273v1c0 -15 4 -25 12 -37c14 -18 32 -24 56 -24c25 -1 42 3 54 8l14 -5l-14 -15c-14 -6 -40 -9 -64 -9c-30 0 -51 13 -69 34c-1 -6 -3 -11 -5 -18c-25 -75 -172 -227 -241 -235c-37 -3 -58 29 -45 52l9 15l-31 -29c-9 -8 -56 -47 -100 -46c-26 1 -52 16 -50 40
c4 70 142 189 147 232c2 16 -9 13 -18 12c-13 -1 -51 -22 -82 -35c-13 -5 -21 -9 -34 -14l-13 9l13 11l49 19c38 16 74 36 100 32c21 -4 44 -23 30 -44c-36 -58 -117 -161 -128 -182c-8 -14 -24 -41 7 -42c35 -2 133 111 209 189c28 28 45 45 71 75l23 -38
c-8 -8 -15 -14 -23 -24c-60 -66 -135 -168 -137 -186c0 -8 3 -18 11 -19c29 -4 203 121 219 248c2 15 3 25 3 40l27 -13v-2z" />
    <glyph glyph-name="r.high" horiz-adv-x="331" 
d="M137 325c18 -22 38 -36 44 -40c32 -19 64 -10 104 -8c11 1 18 3 28 4v-25l-21 -21c-53 -57 -109 -116 -109 -170c0 -42 10 -70 47 -70c31 0 66 40 79 52l22 23l12 -3l-12 -17l-12 -13c-16 -18 -57 -64 -92 -64c-48 0 -81 36 -81 96s62 100 96 143c10 13 14 16 23 24
c-12 -4 -22 -7 -36 -8c-32 -4 -54 1 -82 15c-11 5 -17 9 -26 16c-11 -6 -18 -11 -29 -16c-34 -18 -55 -30 -92 -42l-13 8l13 12c33 14 53 26 80 50c21 18 33 30 49 54h8z" />
    <glyph glyph-name="m.high" horiz-adv-x="464" 
d="M299 51l148 161c8 9 6 27 -6 29c-16 3 -48 -4 -66 -24l-216 -244l-40 24l189 219c13 16 -5 27 -17 28c-39 3 -68 -18 -94 -48l-203 -229l-43 26l190 224c5 6 11 11 10 19c-2 7 -4 14 -15 13c-21 -3 -66 -32 -109 -42c-10 -2 -17 -5 -27 -6l-13 8l13 12c17 3 29 6 45 11
c38 11 57 38 97 38c25 0 29 -7 33 -22c2 -10 2 -19 -4 -28l22 17c22 16 58 32 102 30c16 -1 36 -8 41 -26c3 -8 3 -15 0 -24l13 12c31 28 50 34 100 35c32 1 76 -33 41 -72l-131 -146c-16 -17 -36 -51 -12 -53c32 -1 74 36 94 55l23 23l14 -8l-46 -43
c-29 -27 -71 -47 -107 -47s-68 32 -26 78z" />
    <glyph glyph-name="t.high" horiz-adv-x="122" 
d="M-9 121l82 105c-12 -3 -20 -7 -32 -11c-15 -4 -26 -9 -41 -14l-13 8l13 12c14 2 23 6 36 11c44 17 72 37 98 71c1 0 -1 0 -1 0h-58v21h74l84 105h55l-82 -105h47v-21h-64l-162 -210c-25 -32 -31 -35 -28 -61c0 -5 -6 -35 18 -35c26 0 66 34 83 51l22 22l11 -3l-11 -17
l-12 -13c-32 -36 -69 -62 -104 -64c-27 0 -60 16 -59 54c2 40 18 62 44 94z" />
    <glyph glyph-name="y.high" horiz-adv-x="234" 
d="M-6 -140c-102 -65 -192 -117 -191 -148c0 -15 8 -18 18 -18c38 0 100 71 173 166zM138 53c1 0 -35 -30 -35 -30c-32 -27 -60 -46 -98 -46c-23 0 -34 16 -34 34c-1 65 153 175 165 214c1 6 -3 14 -9 14c-24 -2 -54 -16 -93 -26c-12 -4 -21 -8 -34 -12l-13 8l13 12l37 11
c39 11 46 26 100 29c20 1 39 -11 38 -30c-2 -61 -158 -183 -159 -214c0 -8 3 -17 11 -18c28 -3 73 42 111 77l63 59h1l1 1c16 20 31 39 47 57l64 75l31 -25l-39 -48c-53 -64 -107 -136 -159 -206c18 15 35 30 51 46l36 36l11 -9l-11 -12l-29 -29c-29 -30 -64 -59 -101 -86
c-112 -144 -217 -265 -295 -267c-12 0 -36 13 -36 39c-2 58 129 121 259 203z" />
    <glyph glyph-name="i.high" horiz-adv-x="109" 
d="M208 343c0 -25 -37 -25 -37 0c0 24 37 24 37 0zM126 287l28 -22l-119 -161c-19 -26 -48 -59 -48 -79c0 -26 16 -29 26 -29c16 0 50 23 76 51l20 23l10 -11l-10 -9l-16 -18c-30 -32 -64 -59 -94 -59c-26 0 -56 16 -56 44c0 29 29 70 58 107l81 105c-12 -4 -25 -8 -41 -14
c-15 -6 -26 -9 -41 -14l-13 8l13 12c14 3 22 6 36 11c34 13 81 43 90 55z" />
    <glyph glyph-name="s.high" horiz-adv-x="160" 
d="M-33 32c-24 34 -42 71 -68 75c-30 3 -57 -14 -64 -42c-6 -36 13 -74 60 -74c36 0 56 17 72 41zM-5 -3c-26 -14 -59 -23 -99 -24c-62 0 -82 38 -86 76c-5 46 43 84 90 80c31 -2 55 -40 79 -75c10 21 20 46 33 67c19 32 39 43 60 75c8 13 13 22 19 36
c-16 -6 -26 -10 -42 -15c-19 -6 -30 -11 -49 -16l-13 8l13 12c18 4 29 7 45 14c47 18 72 38 111 70c5 4 9 8 13 12l24 -2c-10 -11 -16 -18 -25 -30c-49 -56 -43 -134 -71 -182c-9 -16 -32 -62 -82 -95c10 -9 22 -15 34 -15c29 2 59 28 88 55l23 22l18 -4l-30 -29
c-33 -31 -60 -63 -99 -64c-22 0 -39 10 -54 24z" />
    <glyph glyph-name="d.high" horiz-adv-x="253" 
d="M197 249c-80 0 -308 -229 -256 -252c25 -10 140 96 166 126l76 89c9 11 32 37 14 37zM36 232c43 14 65 22 107 34c29 11 55 14 76 3c4 -2 6 -5 10 -8l299 359h48l-441 -540c-21 -27 -42 -83 13 -83c21 0 54 26 81 49c10 9 16 15 24 24l12 -3l-12 -17
c-5 -7 -11 -13 -18 -19c-35 -35 -72 -58 -114 -58c-43 0 -66 36 -56 56l6 11l-26 -20c-36 -27 -78 -47 -115 -47c-66 2 -34 76 -9 110c17 22 85 96 156 146l-11 -6c-9 -2 -15 -5 -25 -8c-15 -4 -26 -9 -41 -14l-13 8l13 12c14 4 22 6 36 11z" />
    <glyph glyph-name="g.high" horiz-adv-x="211" 
d="M-31 -117c-4 -2 -8 -5 -13 -7c-91 -47 -215 -87 -208 -162c1 -13 9 -21 23 -22c56 -6 120 79 198 191zM-43 -5c25 -11 152 94 176 125l74 92c10 14 33 45 15 45c-80 0 -317 -240 -265 -262zM42 215c-16 -4 -26 -8 -41 -14l-14 8l14 12c14 4 22 6 36 11
c46 16 68 21 113 37c30 10 58 11 83 0c4 -2 6 -5 10 -8l19 20l39 -14l-142 -188l-84 -115c12 7 26 16 40 26c39 27 61 46 95 79l11 1l-1 -13l-10 -8c-40 -37 -65 -58 -110 -89l-53 -35c-99 -135 -198 -260 -276 -258c-17 0 -48 12 -48 47c-1 101 134 135 239 191l35 18
l71 102l14 19l-26 -20c-35 -27 -76 -51 -113 -51c-62 0 -29 73 -6 108c34 54 81 106 130 142c-9 -2 -15 -4 -25 -8z" />
    <glyph glyph-name="h.high" horiz-adv-x="251" 
d="M261 369c136 110 198 168 202 202c2 10 0 23 -10 24c-33 4 -113 -120 -192 -226zM223 317c-4 -4 -7 -9 -10 -13l-58 -72c20 15 37 23 55 35c25 16 44 24 75 26c34 3 65 -16 52 -61c-14 -47 -177 -169 -178 -212c-1 -11 5 -19 19 -20c24 -3 71 33 105 69l10 10v-19
l-10 -10c-41 -41 -75 -79 -126 -77c-34 2 -43 34 -38 59c18 85 162 167 178 227c2 8 1 14 -19 13c-91 -5 -203 -144 -303 -265l-27 -34l-29 40l76 99c44 55 80 94 116 137c-23 -13 -46 -24 -67 -33c-16 -7 -27 -10 -44 -15l-10 5l10 14c12 3 19 5 31 10c44 19 76 33 107 50
l47 59c88 114 184 277 248 277c41 0 52 -19 48 -43c-12 -62 -132 -170 -258 -256z" />
    <glyph glyph-name="j.high" horiz-adv-x="88" 
d="M-152 -132c-89 -56 -164 -103 -170 -141c-3 -18 -1 -42 19 -42c44 2 92 97 140 166c4 6 8 12 11 17zM212 343c0 -25 -37 -25 -37 0c0 24 37 24 37 0zM41 215c-16 -6 -25 -8 -41 -14l-13 8l13 12c14 3 22 6 36 11c39 15 60 29 93 55l25 -19l-111 -163l-104 -154
c47 31 91 62 126 96l23 23l11 1l-1 -12l-10 -9l-17 -17c-46 -46 -103 -87 -160 -124c-8 -13 -18 -27 -27 -42c-54 -82 -139 -200 -188 -202c-31 -2 -45 27 -43 54c4 60 109 122 221 191c23 38 40 71 72 117l146 208c-18 -8 -33 -13 -51 -20z" />
    <glyph glyph-name="k.high" horiz-adv-x="276" 
d="M287 378c110 79 211 169 212 201c0 7 0 15 -8 16c-25 4 -80 -55 -123 -110c-36 -45 -59 -78 -81 -107zM125 165l-161 -192l-36 24c65 83 125 145 190 229c9 12 19 25 29 37c-37 -20 -69 -36 -92 -43c-18 -5 -34 -13 -54 -19l-14 8l13 11c20 5 33 11 53 17
c30 10 74 34 122 65c114 153 236 321 311 319c21 0 41 -8 40 -34c-3 -45 -139 -163 -270 -254c-14 -20 -29 -40 -49 -66c0 1 13 9 13 9c27 17 45 26 77 28c41 3 69 -15 66 -47c-4 -34 -30 -51 -66 -70c-17 -9 -28 -15 -48 -19c1 -8 2 -15 0 -24c-7 -46 -110 -86 -108 -118
c0 -21 19 -33 36 -33c22 0 40 22 59 40l41 38l12 -9l-46 -43c-15 -14 -44 -44 -66 -46c-31 -2 -68 15 -70 46c-2 52 90 96 84 134c-2 16 -22 12 -38 12h-28zM181 235l-24 -30s-16 -20 -25 -30h29c39 0 152 53 150 86c-1 14 -2 22 -27 22c-18 0 -44 -21 -72 -34z" />
    <glyph glyph-name="l.high" horiz-adv-x="158" 
d="M243 333c134 85 224 182 224 207c0 13 -5 17 -18 16c-24 -3 -114 -104 -206 -223zM155 283c98 125 215 289 279 291c51 2 56 -15 53 -34c-5 -39 -116 -163 -278 -253c-38 -48 -74 -98 -104 -144c-30 -44 -72 -88 -75 -116c-1 -9 6 -31 20 -31c23 0 36 9 52 23l58 51
l11 -8l-11 -12l-46 -45c-16 -15 -46 -32 -76 -32c-29 0 -61 16 -61 51c0 39 82 137 151 224c-23 -10 -47 -19 -72 -27c-20 -6 -34 -14 -56 -20l-13 9l13 11c18 4 33 9 47 14c38 14 74 30 108 48z" />
    <glyph glyph-name="apple" unicode="&#xf8ff;" horiz-adv-x="882" 
d="M453 345c-4 -1 -6 -2 -10 -3h52c-5 2 -10 3 -16 4c-4 1 -6 1 -11 1h-9c-2 0 -4 -2 -6 -2zM337 -300c-72 0 -122 -5 -182 35c-97 66 -95 177 -95 299v243c0 122 -7 230 95 297c61 39 110 35 182 35h183c72 0 121 4 181 -35c103 -67 96 -175 96 -297v-243
c0 -122 7 -232 -96 -299c-60 -39 -109 -35 -181 -35h-183zM409 344c-4 -1 -6 -1 -10 -2h53c-7 1 -10 2 -17 3c-4 0 -7 1 -12 1h-8c-3 0 -4 -1 -6 -2zM563 315c4 -6 8 -8 16 -8c8 -1 16 2 21 9c3 5 6 11 4 17c-3 8 -10 9 -18 10c-8 0 -14 -2 -19 -8c-4 4 -10 7 -16 8
c-8 0 -14 -2 -20 -8c-4 5 -9 7 -16 8c-8 0 -14 -3 -18 -8c-5 5 -10 8 -17 8s-13 -3 -17 -8c-4 5 -9 7 -16 8c-8 0 -14 -2 -18 -8c-6 6 -11 8 -19 8c-7 0 -11 -3 -16 -8c-5 5 -9 8 -17 8c-7 0 -13 -3 -18 -8c-4 5 -9 7 -16 8c-8 0 -14 -2 -20 -8c-4 4 -9 7 -16 8
c-8 0 -14 -2 -19 -8c-5 4 -9 6 -15 7c-8 1 -16 -2 -21 -9c-3 -6 -6 -12 -4 -18c3 -6 10 -7 17 -8c8 0 15 2 20 8c4 -4 9 -6 15 -7c8 -1 13 1 19 7c4 -5 9 -7 16 -8c8 0 15 2 20 8c4 -4 8 -7 14 -8c8 -1 14 2 20 8c4 -5 8 -8 15 -8c8 -1 15 2 19 8c4 -5 9 -8 16 -8
c8 -2 16 2 20 8c4 -5 8 -7 14 -8c8 -2 16 2 20 8c4 -5 8 -8 14 -8c8 -1 15 2 20 8c4 -6 8 -8 16 -8c8 -1 15 2 20 8zM501 595c-28 -2 -45 -33 -40 -60c4 -16 29 -18 27 -35c-1 -7 -5 -9 -11 -10c-22 -5 -25 15 -63 15c-33 1 -41 -41 -65 -28c-8 4 -13 10 -18 18
c-4 5 -6 8 -8 13c-2 -4 -4 -7 -5 -12c-3 -14 16 -24 15 -35c0 -10 -7 -30 -11 -35c5 6 23 13 31 12c9 -1 12 -7 20 -11c10 -5 17 -8 28 -11c-4 -4 -5 -7 -7 -12c-6 -17 6 -28 14 -43c3 -6 4 -9 7 -15h7c-3 4 -4 5 -6 10c-7 17 -19 40 -5 51c4 3 8 3 12 4c8 2 14 2 22 2
c-4 -5 -6 -8 -8 -14c-4 -14 8 -21 14 -34c4 -8 6 -12 10 -18l5 -1c-5 12 -8 19 -12 32c-3 9 -9 14 -6 23c10 25 33 7 55 10c25 4 37 24 38 42c3 72 -53 57 -56 93c0 8 9 11 16 13c11 4 18 -3 29 -4c17 0 27 0 43 4l-15 5l13 5c-7 0 -10 1 -18 3c-7 2 -12 3 -18 7
c-5 4 -6 10 -12 13c-7 5 -14 4 -22 3zM594 190l45 -29h-35l35 -19h-35l32 -21h-32v-19h-20v19h-32l32 21h-32l32 19h-31zM427 -44l44 -27h-34l34 -21h-34l32 -20h-32v-19h-20v19h-32l32 20h-32l32 21h-31zM259 190l45 -29h-35l35 -19h-35l32 -21h-32v-19h-20v19h-32l32 21
h-32l32 19h-30zM169 -111c0 -1 258 257 258 257l260 -261c1 5 1 10 1 15v329c0 15 6 24 18 34c11 9 21 12 35 10v27h-626v-27c14 2 24 -1 34 -10c12 -10 19 -19 19 -34v-329c0 -4 1 -8 1 -11zM644 -162l-217 214l-214 -214c4 -1 8 -2 14 -2h144c16 0 30 -4 40 -13
c10 -8 15 -13 21 -24c3 10 8 16 16 24c15 14 27 13 37 13h144c6 0 10 1 15 2z" />
    <glyph glyph-name="z.high" horiz-adv-x="167" 
d="M95 -19c-119 -104 -263 -195 -265 -268c0 -12 5 -25 19 -26c74 -4 204 174 246 294zM99 265c13 10 22 22 20 36c0 4 -4 6 -8 8c-10 4 -18 -12 -18 -20c-1 -9 1 -17 6 -24zM219 231c12 10 26 22 43 34l13 -14l-114 -90l-100 -78c8 2 13 2 22 3c29 4 56 1 66 -33l18 17
l16 -2l-16 -18l-15 -15c1 -4 1 -7 1 -11c0 -71 -142 -356 -303 -354c-12 0 -45 1 -43 41c5 98 168 190 296 300c2 10 4 20 4 29c1 15 -10 28 -25 29c-25 3 -39 -8 -59 -22l-73 -48l-8 10c283 230 123 94 182 147c45 41 -45 -32 72 58c-7 -1 -14 -2 -21 -2
c-24 0 -56 14 -76 33c-18 -13 -44 -27 -72 -35c-10 -3 -17 -6 -27 -9l-13 8l13 12c17 3 29 7 45 15c14 7 30 14 43 22c-6 9 -9 19 -9 28c2 19 16 37 35 36c25 -1 23 -33 13 -50c-2 -5 -8 -12 -17 -19c25 -20 66 -30 76 -28c12 3 23 4 33 6z" />
    <glyph glyph-name="x.high" horiz-adv-x="287" 
d="M-60 -27c-29 -4 -64 13 -65 40c-2 28 21 53 48 49c28 -5 30 -24 22 -39c-10 -21 -43 -13 -42 4c0 5 3 9 6 12c-3 0 -6 1 -8 0c-22 -14 -6 -50 32 -51c53 -1 225 169 231 227c1 16 -5 34 -21 34c-28 2 -67 -24 -116 -39c-10 -3 -17 -6 -27 -9l-13 8l13 12c18 4 28 8 45 14
c34 11 64 31 84 34c48 8 72 4 69 -56c55 42 100 73 157 73c24 0 36 -14 38 -34c4 -25 -19 -47 -44 -45c-38 2 -16 56 11 38c3 -2 5 -6 5 -9c6 3 9 7 10 13c1 13 -13 22 -26 22c-82 -4 -215 -170 -215 -219c0 -27 11 -53 30 -56c40 -7 76 29 111 62l12 11l11 -5l-11 -14
l-24 -24c-40 -39 -82 -61 -132 -53c-31 6 -44 39 -45 73c-45 -36 -95 -64 -146 -73z" />
    <glyph glyph-name="b.high" horiz-adv-x="356" 
d="M209 327c148 100 230 201 228 227c0 9 1 12 -14 14c-28 4 -93 -92 -132 -140zM79 251c38 46 79 92 118 135c66 71 154 200 200 202c36 1 59 -5 56 -34c-5 -59 -102 -163 -280 -269c-100 -120 -194 -235 -196 -265c-1 -13 9 -15 18 -16c45 -5 231 150 238 244
c1 8 0 13 0 21h24c-1 -14 -1 -24 6 -34c18 -26 47 -30 80 -26c14 1 23 4 36 10l14 -8l-14 -12c-12 -6 -18 -8 -31 -12c-23 -5 -39 -6 -61 2c-16 6 -26 12 -38 26c-5 -11 -7 -17 -14 -27c-68 -106 -196 -214 -250 -215c-18 0 -63 15 -58 43c8 44 61 122 128 205
c-18 -8 -33 -12 -55 -20l-13 8l13 12c27 8 45 12 70 25c3 1 6 3 9 5z" />
    <glyph glyph-name="n.high" horiz-adv-x="318" 
d="M77 230c-16 -9 -32 -13 -52 -20c-9 -3 -15 -6 -25 -9l-13 8l13 12c17 5 29 10 45 16c27 10 43 32 74 31c22 -1 41 -3 53 -21c5 -9 8 -16 8 -27c17 12 27 19 47 27c28 12 45 17 76 18c22 2 54 -11 56 -37c0 -15 -5 -25 -15 -36l-145 -165c-12 -14 -3 -29 10 -28
c28 1 64 28 85 48l25 24l12 -9l-45 -43c-29 -26 -73 -44 -100 -46c-37 -2 -55 41 -29 69l151 170c5 5 9 10 9 17c1 10 -10 14 -20 15c-36 3 -70 -16 -98 -48l-202 -223l-36 27l190 217c4 6 1 15 -3 22c-5 7 -12 8 -20 10c-21 5 -32 -8 -51 -19z" />
    <glyph glyph-name="numbersign" unicode="#" 
 />
    <glyph glyph-name="dollar" unicode="$" 
 />
    <glyph glyph-name="percent" unicode="%" 
 />
    <glyph glyph-name="ampersand" unicode="&#x26;" 
 />
    <glyph glyph-name="asterisk" unicode="*" 
 />
    <glyph glyph-name="plus" unicode="+" 
 />
    <glyph glyph-name="slash" unicode="/" 
 />
    <glyph glyph-name="less" unicode="&#x3c;" 
 />
    <glyph glyph-name="equal" unicode="=" 
 />
    <glyph glyph-name="greater" unicode="&#x3e;" 
 />
    <glyph glyph-name="at" unicode="@" 
 />
    <glyph glyph-name="bracketleft" unicode="[" 
 />
    <glyph glyph-name="backslash" unicode="\" 
 />
    <glyph glyph-name="bracketright" unicode="]" 
 />
    <glyph glyph-name="asciicircum" unicode="^" 
 />
    <glyph glyph-name="bar" unicode="|" 
 />
    <glyph glyph-name="asciitilde" unicode="~" 
 />
    <glyph glyph-name="quotesingle" unicode="'" 
 />
    <glyph glyph-name="grave" unicode="`" 
 />
    <glyph glyph-name="Lslash" unicode="&#x141;" 
 />
    <glyph glyph-name="lslash" unicode="&#x142;" 
 />
    <glyph glyph-name="u.high" horiz-adv-x="321" 
d="M142 271c25 2 55 -14 56 -32c1 -30 -123 -171 -134 -192c-6 -11 -27 -39 8 -40c42 0 132 109 209 185c26 25 42 42 66 69l32 -32c-10 -8 -18 -14 -26 -24c-47 -52 -80 -105 -126 -160c-6 -8 -21 -29 -12 -42c11 -18 59 22 82 44l24 23l17 -4l-31 -29
c-34 -31 -72 -62 -99 -64c-25 -1 -55 20 -35 54l8 15l-38 -31c-37 -28 -48 -48 -114 -44c-18 2 -34 15 -34 35c0 81 149 206 147 233c-1 19 -8 14 -16 14c-17 1 -72 -30 -104 -40l-23 -8l-11 9l12 11l15 4c53 13 96 43 127 46z" />
    <glyph glyph-name="joiner" horiz-adv-x="0" 
d="M-79 3l10 6c15 10 28 22 45 37c10 9 15 14 24 24l17 16l2 -20l-19 -16c-6 -7 -11 -12 -18 -19c-18 -18 -36 -34 -51 -40l-18 -7z" />
  </font>
</defs>
</svg>
